G04 #@! TF.GenerationSoftware,KiCad,Pcbnew,6.0.2+dfsg-1*
G04 #@! TF.CreationDate,2022-08-30T21:03:39+10:00*
G04 #@! TF.ProjectId,AI.ABS.v1.single.ended.preamplifier,41492e41-4253-42e7-9631-2e73696e676c,rev?*
G04 #@! TF.SameCoordinates,Original*
G04 #@! TF.FileFunction,Soldermask,Top*
G04 #@! TF.FilePolarity,Negative*
%FSLAX45Y45*%
G04 Gerber Fmt 4.5, Leading zero omitted, Abs format (unit mm)*
G04 Created by KiCad (PCBNEW 6.0.2+dfsg-1) date 2022-08-30 21:03:39*
%MOMM*%
%LPD*%
G01*
G04 APERTURE LIST*
G04 Aperture macros list*
%AMRoundRect*
0 Rectangle with rounded corners*
0 $1 Rounding radius*
0 $2 $3 $4 $5 $6 $7 $8 $9 X,Y pos of 4 corners*
0 Add a 4 corners polygon primitive as box body*
4,1,4,$2,$3,$4,$5,$6,$7,$8,$9,$2,$3,0*
0 Add four circle primitives for the rounded corners*
1,1,$1+$1,$2,$3*
1,1,$1+$1,$4,$5*
1,1,$1+$1,$6,$7*
1,1,$1+$1,$8,$9*
0 Add four rect primitives between the rounded corners*
20,1,$1+$1,$2,$3,$4,$5,0*
20,1,$1+$1,$4,$5,$6,$7,0*
20,1,$1+$1,$6,$7,$8,$9,0*
20,1,$1+$1,$8,$9,$2,$3,0*%
G04 Aperture macros list end*
%ADD10RoundRect,0.218750X0.256250X-0.218750X0.256250X0.218750X-0.256250X0.218750X-0.256250X-0.218750X0*%
%ADD11RoundRect,0.243750X-0.456250X0.243750X-0.456250X-0.243750X0.456250X-0.243750X0.456250X0.243750X0*%
%ADD12RoundRect,0.243750X0.456250X-0.243750X0.456250X0.243750X-0.456250X0.243750X-0.456250X-0.243750X0*%
%ADD13RoundRect,0.218750X-0.256250X0.218750X-0.256250X-0.218750X0.256250X-0.218750X0.256250X0.218750X0*%
%ADD14RoundRect,0.218750X-0.026517X0.335876X-0.335876X0.026517X0.026517X-0.335876X0.335876X-0.026517X0*%
%ADD15RoundRect,0.218750X0.218750X0.256250X-0.218750X0.256250X-0.218750X-0.256250X0.218750X-0.256250X0*%
%ADD16R,1.700000X1.700000*%
%ADD17O,1.700000X1.700000*%
%ADD18R,1.550000X0.600000*%
%ADD19C,6.200000*%
%ADD20R,1.600000X3.500000*%
%ADD21RoundRect,0.243750X-0.243750X-0.456250X0.243750X-0.456250X0.243750X0.456250X-0.243750X0.456250X0*%
%ADD22R,0.900000X0.800000*%
%ADD23RoundRect,0.218750X-0.218750X-0.256250X0.218750X-0.256250X0.218750X0.256250X-0.218750X0.256250X0*%
%ADD24R,2.150000X0.800000*%
%ADD25R,0.900000X1.200000*%
%ADD26R,0.800000X0.900000*%
%ADD27C,3.000000*%
%ADD28R,3.200000X4.000000*%
%ADD29RoundRect,0.243750X0.243750X0.456250X-0.243750X0.456250X-0.243750X-0.456250X0.243750X-0.456250X0*%
G04 APERTURE END LIST*
D10*
X15720000Y-10928750D03*
X15720000Y-10771250D03*
D11*
X15888000Y-11260000D03*
X15888000Y-11072500D03*
D12*
X15895000Y-10911250D03*
X15895000Y-10723750D03*
D13*
X15718000Y-11082500D03*
X15718000Y-11240000D03*
X14830000Y-11641250D03*
X14830000Y-11798750D03*
X15560000Y-10688750D03*
X15560000Y-10531250D03*
D14*
X14611369Y-12268631D03*
X14500000Y-12380000D03*
D15*
X14972500Y-14030000D03*
X15130000Y-14030000D03*
D10*
X16250000Y-12460000D03*
X16250000Y-12302500D03*
D13*
X15575000Y-11683750D03*
X15575000Y-11526250D03*
D16*
X16575000Y-12250000D03*
D17*
X16575000Y-12504000D03*
X16575000Y-12758000D03*
X16575000Y-13012000D03*
X16575000Y-13266000D03*
X16575000Y-13520000D03*
D10*
X16260000Y-11411250D03*
X16260000Y-11568750D03*
D18*
X15545000Y-12205500D03*
X15545000Y-12078500D03*
X15545000Y-11951500D03*
X15545000Y-11824500D03*
X15005000Y-11824500D03*
X15005000Y-11951500D03*
X15005000Y-12078500D03*
X15005000Y-12205500D03*
D13*
X15720000Y-12248750D03*
X15720000Y-12091250D03*
D12*
X15890000Y-11760000D03*
X15890000Y-11947500D03*
D11*
X15890000Y-12100000D03*
X15890000Y-12287500D03*
D15*
X14987500Y-12360000D03*
X14830000Y-12360000D03*
D10*
X15720000Y-11790000D03*
X15720000Y-11947500D03*
X16110000Y-11568750D03*
X16110000Y-11411250D03*
X16100000Y-12460000D03*
X16100000Y-12302500D03*
D11*
X14655000Y-12892500D03*
X14655000Y-13080000D03*
D19*
X18875000Y-10500000D03*
D16*
X13575000Y-12250000D03*
D17*
X13575000Y-12504000D03*
X13575000Y-12758000D03*
X13575000Y-13012000D03*
X13575000Y-13266000D03*
X13575000Y-13520000D03*
D15*
X14807500Y-13600000D03*
X14650000Y-13600000D03*
D11*
X12437500Y-15048750D03*
X12437500Y-14861250D03*
D20*
X12627500Y-14025000D03*
X12627500Y-14565000D03*
X11732500Y-14040000D03*
X11732500Y-14580000D03*
D15*
X15910000Y-14330000D03*
X15752500Y-14330000D03*
X15158750Y-12640000D03*
X15001250Y-12640000D03*
D10*
X15980000Y-13621250D03*
X15980000Y-13778750D03*
D13*
X15725000Y-13085000D03*
X15725000Y-13242500D03*
D21*
X12671250Y-13012500D03*
X12483750Y-13012500D03*
D15*
X12666250Y-13712500D03*
X12508750Y-13712500D03*
D22*
X12707500Y-13407500D03*
X12707500Y-13217500D03*
X12507500Y-13312500D03*
D10*
X12357500Y-13322500D03*
X12357500Y-13480000D03*
D23*
X12508750Y-13562500D03*
X12666250Y-13562500D03*
D18*
X15540000Y-14580500D03*
X15540000Y-14453500D03*
X15540000Y-14326500D03*
X15540000Y-14199500D03*
X15000000Y-14199500D03*
X15000000Y-14326500D03*
X15000000Y-14453500D03*
X15000000Y-14580500D03*
D15*
X15728750Y-14040000D03*
X15571250Y-14040000D03*
X14978750Y-14730000D03*
X14821250Y-14730000D03*
D13*
X14800000Y-14463750D03*
X14800000Y-14306250D03*
X15725000Y-14643750D03*
X15725000Y-14486250D03*
X14825000Y-12905000D03*
X14825000Y-13062500D03*
D15*
X15798750Y-12630000D03*
X15641250Y-12630000D03*
X14866250Y-13345000D03*
X15023750Y-13345000D03*
D24*
X10995500Y-10717500D03*
X10995500Y-11037500D03*
X10995500Y-11257500D03*
X10995500Y-11477500D03*
X11630500Y-11477500D03*
X11630500Y-11257500D03*
X11631500Y-11037500D03*
X11631500Y-10717500D03*
D13*
X11870000Y-11080000D03*
X11870000Y-11237500D03*
X11870000Y-11620000D03*
X11870000Y-11462500D03*
X10750000Y-11240000D03*
X10750000Y-11082500D03*
X10750000Y-11462500D03*
X10750000Y-11620000D03*
D22*
X10610000Y-10440000D03*
X10810000Y-10345000D03*
X10810000Y-10535000D03*
D10*
X10450000Y-10520000D03*
X10450000Y-10362500D03*
D25*
X11470000Y-10460000D03*
X11140000Y-10460000D03*
D10*
X11747500Y-14867500D03*
X11747500Y-15025000D03*
D26*
X12152500Y-14855000D03*
X12247500Y-15055000D03*
X12057500Y-15055000D03*
D23*
X12136250Y-14705000D03*
X11978750Y-14705000D03*
D13*
X11897500Y-14876250D03*
X11897500Y-15033750D03*
D18*
X15005000Y-13175500D03*
X15005000Y-13048500D03*
X15005000Y-12921500D03*
X15005000Y-12794500D03*
X15545000Y-12794500D03*
X15545000Y-12921500D03*
X15545000Y-13048500D03*
X15545000Y-13175500D03*
D16*
X12075000Y-12758000D03*
D17*
X12075000Y-13012000D03*
X12075000Y-13266000D03*
X12075000Y-13520000D03*
D16*
X9700000Y-10402000D03*
D17*
X9700000Y-10656000D03*
X9700000Y-10910000D03*
D15*
X14651250Y-13750000D03*
X14808750Y-13750000D03*
X14276250Y-14900000D03*
X14433750Y-14900000D03*
X14432250Y-14753500D03*
X14274750Y-14753500D03*
D11*
X15895000Y-13115000D03*
X15895000Y-13302500D03*
X14617500Y-14487500D03*
X14617500Y-14300000D03*
X15895000Y-14677500D03*
X15895000Y-14490000D03*
D27*
X10242500Y-13350000D03*
X10242500Y-14750000D03*
D28*
X9717500Y-12950000D03*
X9717500Y-14350000D03*
X18720000Y-12950000D03*
X18720000Y-14350000D03*
D27*
X18195000Y-12550000D03*
X18195000Y-13950000D03*
D12*
X13570000Y-14017500D03*
X13570000Y-13830000D03*
D21*
X13373750Y-14360000D03*
X13186250Y-14360000D03*
D11*
X14660000Y-11926250D03*
X14660000Y-12113750D03*
D15*
X14967500Y-11390000D03*
X14810000Y-11390000D03*
D11*
X14650000Y-11127500D03*
X14650000Y-10940000D03*
D13*
X14830000Y-12100000D03*
X14830000Y-11942500D03*
X14820000Y-10820000D03*
X14820000Y-10662500D03*
X14820000Y-10960000D03*
X14820000Y-11117500D03*
D15*
X14321250Y-11160000D03*
X14478750Y-11160000D03*
D18*
X15540000Y-11220500D03*
X15540000Y-11093500D03*
X15540000Y-10966500D03*
X15540000Y-10839500D03*
X15000000Y-10839500D03*
X15000000Y-10966500D03*
X15000000Y-11093500D03*
X15000000Y-11220500D03*
D15*
X15130000Y-11660000D03*
X15287500Y-11660000D03*
X15230000Y-10670000D03*
X15072500Y-10670000D03*
D29*
X14613750Y-11640000D03*
X14426250Y-11640000D03*
X14416250Y-10650000D03*
X14603750Y-10650000D03*
M02*
