G04 #@! TF.GenerationSoftware,KiCad,Pcbnew,6.0.2+dfsg-1*
G04 #@! TF.CreationDate,2022-08-30T21:03:38+10:00*
G04 #@! TF.ProjectId,AI.ABS.v1.single.ended.preamplifier,41492e41-4253-42e7-9631-2e73696e676c,rev?*
G04 #@! TF.SameCoordinates,Original*
G04 #@! TF.FileFunction,Copper,L3,Inr*
G04 #@! TF.FilePolarity,Positive*
%FSLAX45Y45*%
G04 Gerber Fmt 4.5, Leading zero omitted, Abs format (unit mm)*
G04 Created by KiCad (PCBNEW 6.0.2+dfsg-1) date 2022-08-30 21:03:38*
%MOMM*%
%LPD*%
G01*
G04 APERTURE LIST*
G04 #@! TA.AperFunction,ComponentPad*
%ADD10R,1.700000X1.700000*%
G04 #@! TD*
G04 #@! TA.AperFunction,ComponentPad*
%ADD11O,1.700000X1.700000*%
G04 #@! TD*
G04 #@! TA.AperFunction,WasherPad*
%ADD12R,3.500000X2.500000*%
G04 #@! TD*
G04 #@! TA.AperFunction,ComponentPad*
%ADD13C,3.000000*%
G04 #@! TD*
G04 #@! TA.AperFunction,ComponentPad*
%ADD14R,3.200000X4.000000*%
G04 #@! TD*
G04 #@! TA.AperFunction,ViaPad*
%ADD15C,0.500000*%
G04 #@! TD*
G04 APERTURE END LIST*
D10*
X16575000Y-12250000D03*
D11*
X16575000Y-12504000D03*
X16575000Y-12758000D03*
X16575000Y-13012000D03*
X16575000Y-13266000D03*
X16575000Y-13520000D03*
D10*
X13575000Y-12250000D03*
D11*
X13575000Y-12504000D03*
X13575000Y-12758000D03*
X13575000Y-13012000D03*
X13575000Y-13266000D03*
X13575000Y-13520000D03*
D10*
X12075000Y-12758000D03*
D11*
X12075000Y-13012000D03*
X12075000Y-13266000D03*
X12075000Y-13520000D03*
D10*
X9700000Y-10402000D03*
D11*
X9700000Y-10656000D03*
X9700000Y-10910000D03*
D12*
X9817500Y-12360000D03*
X9817500Y-14940000D03*
D13*
X10242500Y-13350000D03*
X10242500Y-14750000D03*
D14*
X9717500Y-12950000D03*
X9717500Y-14350000D03*
X18720000Y-12950000D03*
X18720000Y-14350000D03*
D13*
X18195000Y-12550000D03*
X18195000Y-13950000D03*
D12*
X18620000Y-12360000D03*
X18620000Y-14940000D03*
D15*
X11450000Y-11540000D03*
X11180000Y-11600000D03*
X10850000Y-11360000D03*
X11320000Y-11420000D03*
X11315000Y-11120000D03*
X12030000Y-10980000D03*
X10870000Y-11140000D03*
X11700000Y-11630000D03*
X11750000Y-11150000D03*
X14655000Y-13320000D03*
X15350000Y-13210000D03*
X15220000Y-13350000D03*
X14205000Y-13280000D03*
X10580000Y-11130000D03*
X15770000Y-14810000D03*
X14475000Y-14390000D03*
X15150000Y-14745000D03*
X12160000Y-15190000D03*
X11320000Y-14295000D03*
X11940000Y-14470000D03*
X11910000Y-13650000D03*
X11730000Y-13280000D03*
X11120000Y-12410000D03*
X11625000Y-12600000D03*
X12905000Y-13145000D03*
X12275000Y-14745000D03*
X12650000Y-14290000D03*
X12290000Y-13740000D03*
X12270000Y-13140000D03*
X12230000Y-14505000D03*
X12297500Y-12822500D03*
X15180000Y-12830000D03*
X15160000Y-13000000D03*
X11985000Y-12580000D03*
X11670000Y-13005000D03*
X11395000Y-13160000D03*
X9500000Y-11140000D03*
X9300000Y-11255000D03*
X9560000Y-12460000D03*
X10100000Y-12460000D03*
X9620000Y-13240000D03*
X9480000Y-12780000D03*
X9620000Y-14640000D03*
X9620000Y-13920000D03*
X9840000Y-13240000D03*
X9840000Y-13440000D03*
X9840000Y-14660000D03*
X10080000Y-14920000D03*
X9540000Y-14920000D03*
X9300000Y-15135000D03*
X18600000Y-14040000D03*
X18840000Y-14060000D03*
X18340000Y-13660000D03*
X18740000Y-13280000D03*
X19120000Y-13820000D03*
X19140000Y-13340000D03*
X18920000Y-12400000D03*
X18620000Y-12640000D03*
X18360000Y-12400000D03*
X18820000Y-12660000D03*
X12065000Y-11260000D03*
X18475000Y-10295000D03*
X19035000Y-10930000D03*
X16450000Y-13830000D03*
X15520000Y-13330000D03*
X14680000Y-14135000D03*
X15365000Y-14325000D03*
X15390000Y-13745000D03*
X15290000Y-14565000D03*
X14650000Y-14695000D03*
X13475000Y-14535000D03*
X13460000Y-14150000D03*
X13235000Y-13075000D03*
X13700000Y-13810000D03*
X14275000Y-14590000D03*
X15415000Y-14790000D03*
X14590000Y-14985000D03*
X14135000Y-15030000D03*
X19110000Y-15120000D03*
X18830000Y-15380000D03*
X16660000Y-15265000D03*
X13795000Y-15310000D03*
X12620000Y-15025000D03*
X13155000Y-14685000D03*
X13755000Y-12100000D03*
X12930000Y-12290000D03*
X12180000Y-13925000D03*
X11950000Y-13990000D03*
X10460000Y-13525000D03*
X10440000Y-14470000D03*
X10530000Y-13205000D03*
X10410000Y-11580000D03*
X10275000Y-11360000D03*
X9350000Y-12270000D03*
X9345000Y-13535000D03*
X9585000Y-15395000D03*
X12035000Y-14850000D03*
X11620000Y-15210000D03*
X12580000Y-13440000D03*
X15740000Y-12950000D03*
X15380000Y-12835000D03*
X16335000Y-13600000D03*
X15930000Y-12795000D03*
X14480000Y-13000000D03*
X13800000Y-14305000D03*
X13965000Y-12725000D03*
X12335000Y-14210000D03*
X12875000Y-13820000D03*
X10745000Y-12290000D03*
X17935000Y-11240000D03*
X17145000Y-14115000D03*
X18305000Y-12995000D03*
X17955000Y-12875000D03*
X17770000Y-14630000D03*
X10880000Y-14925000D03*
X10880000Y-13720000D03*
X9710000Y-11635000D03*
X12730000Y-10900000D03*
X15790000Y-11520000D03*
X12160000Y-11600000D03*
X16060000Y-10740000D03*
X16270000Y-11270000D03*
X16050000Y-11090000D03*
X16040000Y-10910000D03*
X16260000Y-12080000D03*
X16030000Y-11930000D03*
X16360000Y-11940000D03*
X16390000Y-11770000D03*
X16530000Y-11770000D03*
X16540000Y-11960000D03*
X16790000Y-12530000D03*
X16750000Y-12740000D03*
X17160000Y-12360000D03*
X16920000Y-12210000D03*
X16030000Y-12150000D03*
X15940000Y-12470000D03*
X16420000Y-13050000D03*
X16430000Y-13240000D03*
X16300000Y-13230000D03*
X16280000Y-12950000D03*
X16080000Y-12940000D03*
X16140000Y-13230000D03*
X16130000Y-13680000D03*
X16130000Y-13850000D03*
X16130000Y-14260000D03*
X16140000Y-14400000D03*
X16140000Y-14120000D03*
X16310000Y-14250000D03*
X16300000Y-14410000D03*
X16140000Y-14590000D03*
X17220000Y-13620000D03*
X17760000Y-14220000D03*
X17840000Y-14430000D03*
X17360000Y-13880000D03*
X14280000Y-11950000D03*
X14100000Y-12110000D03*
X14040000Y-11680000D03*
X13960000Y-11880000D03*
X11770000Y-11900000D03*
X12950000Y-11900000D03*
X13510000Y-11890000D03*
X12680000Y-12210000D03*
X11480000Y-11900000D03*
X11560000Y-11680000D03*
X13100000Y-10260000D03*
X14470000Y-10990000D03*
X14680000Y-10830000D03*
X15180000Y-10520000D03*
X15390000Y-11000000D03*
X15150000Y-10930000D03*
X13710000Y-10700000D03*
X14160000Y-11070000D03*
X14190000Y-11270000D03*
X13130000Y-11050000D03*
X13150000Y-11270000D03*
X14780000Y-11540000D03*
X14840000Y-11240000D03*
X15250000Y-11330000D03*
X15400000Y-12020000D03*
X15210000Y-11800000D03*
X14680000Y-11790000D03*
X14510000Y-11980000D03*
X14740000Y-12220000D03*
X14290000Y-12500000D03*
X14820000Y-12510000D03*
X15390000Y-12470000D03*
X15940000Y-13450000D03*
X14480000Y-12730000D03*
X14280000Y-12710000D03*
X15180000Y-14260000D03*
X15630000Y-15070000D03*
X12720000Y-12810000D03*
X16310000Y-10830000D03*
X16430000Y-10690000D03*
X14280000Y-12300000D03*
X13130000Y-12110000D03*
X13400000Y-12250000D03*
X13250000Y-12700000D03*
X13040000Y-12580000D03*
X10120000Y-13560000D03*
X10110000Y-13120000D03*
X14320000Y-12100000D03*
X14440000Y-12520000D03*
X14280000Y-13560000D03*
X14460000Y-13560000D03*
X14460000Y-13790000D03*
X14280000Y-13790000D03*
X14460000Y-13290000D03*
X14950000Y-13780000D03*
X15060000Y-13900000D03*
X15010000Y-13520000D03*
X13710000Y-14030000D03*
X14040000Y-13550000D03*
X14000000Y-13940000D03*
X16270000Y-12630000D03*
X16080000Y-12610000D03*
X16410000Y-12410000D03*
X14460000Y-12230000D03*
X16250000Y-12460000D03*
X16100000Y-12460000D03*
X16213483Y-11796517D03*
X16266517Y-11743483D03*
X13570000Y-14017500D03*
X14651250Y-13750000D03*
X13570000Y-13830000D03*
X14650000Y-13600000D03*
X15980000Y-13778750D03*
X15910000Y-14330000D03*
X10995500Y-11257500D03*
X14500000Y-12380000D03*
G04 #@! TA.AperFunction,Conductor*
G36*
X18801322Y-10181891D02*
G01*
X18804918Y-10186841D01*
X18804918Y-10192959D01*
X18801322Y-10197909D01*
X18798273Y-10199405D01*
X18771603Y-10207178D01*
X18771603Y-10207178D01*
X18771334Y-10207257D01*
X18738861Y-10220874D01*
X18738615Y-10221011D01*
X18738615Y-10221012D01*
X18735293Y-10222872D01*
X18708138Y-10238079D01*
X18679561Y-10258652D01*
X18653495Y-10282328D01*
X18630278Y-10308802D01*
X18610207Y-10337735D01*
X18593540Y-10368753D01*
X18593436Y-10369014D01*
X18593436Y-10369014D01*
X18583881Y-10392963D01*
X18580492Y-10401459D01*
X18580418Y-10401729D01*
X18580418Y-10401729D01*
X18571765Y-10433468D01*
X18571230Y-10435432D01*
X18571187Y-10435708D01*
X18571187Y-10435708D01*
X18566440Y-10466551D01*
X18565873Y-10470235D01*
X18565862Y-10470514D01*
X18565862Y-10470514D01*
X18564616Y-10502237D01*
X18564491Y-10505420D01*
X18564512Y-10505700D01*
X18567080Y-10540257D01*
X18567080Y-10540258D01*
X18567100Y-10540536D01*
X18573668Y-10575130D01*
X18584110Y-10608759D01*
X18598292Y-10640990D01*
X18598433Y-10641232D01*
X18598434Y-10641232D01*
X18608765Y-10658947D01*
X18616031Y-10671408D01*
X18637100Y-10699622D01*
X18661227Y-10725270D01*
X18688102Y-10748021D01*
X18717381Y-10767585D01*
X18717629Y-10767713D01*
X18717630Y-10767713D01*
X18739523Y-10778989D01*
X18748685Y-10783708D01*
X18748948Y-10783807D01*
X18748949Y-10783807D01*
X18781351Y-10796083D01*
X18781352Y-10796084D01*
X18781614Y-10796183D01*
X18815743Y-10804851D01*
X18850634Y-10809599D01*
X18850870Y-10809609D01*
X18850870Y-10809609D01*
X18862013Y-10810046D01*
X18862015Y-10810046D01*
X18862108Y-10810050D01*
X18883920Y-10810050D01*
X18903422Y-10808943D01*
X18909876Y-10808576D01*
X18909876Y-10808576D01*
X18910156Y-10808560D01*
X18910432Y-10808513D01*
X18910433Y-10808513D01*
X18944583Y-10802645D01*
X18944584Y-10802645D01*
X18944860Y-10802597D01*
X18945129Y-10802519D01*
X18945129Y-10802519D01*
X18978397Y-10792822D01*
X18978397Y-10792822D01*
X18978666Y-10792743D01*
X19011139Y-10779126D01*
X19041862Y-10761921D01*
X19070440Y-10741348D01*
X19096505Y-10717672D01*
X19097228Y-10716847D01*
X19119537Y-10691409D01*
X19119537Y-10691409D01*
X19119722Y-10691198D01*
X19139793Y-10662265D01*
X19156460Y-10631247D01*
X19165432Y-10608759D01*
X19169404Y-10598801D01*
X19169508Y-10598541D01*
X19170443Y-10595112D01*
X19173798Y-10589995D01*
X19179520Y-10587827D01*
X19185423Y-10589437D01*
X19189252Y-10594209D01*
X19189894Y-10597727D01*
X19185908Y-14285101D01*
X19185004Y-15121599D01*
X19184752Y-15123807D01*
X19184486Y-15124964D01*
X19184732Y-15126052D01*
X19184730Y-15126976D01*
X19184833Y-15128184D01*
X19183667Y-15150439D01*
X19181474Y-15156152D01*
X19180559Y-15157137D01*
X18877304Y-15442012D01*
X18871768Y-15444619D01*
X18871045Y-15444683D01*
X18869266Y-15444776D01*
X18868235Y-15444830D01*
X18867166Y-15444737D01*
X18866122Y-15444736D01*
X18865036Y-15444486D01*
X18863949Y-15444732D01*
X18863948Y-15444732D01*
X18863842Y-15444756D01*
X18861657Y-15445000D01*
X9553396Y-15445000D01*
X9551177Y-15444748D01*
X9550036Y-15444486D01*
X9548948Y-15444732D01*
X9548024Y-15444730D01*
X9546816Y-15444833D01*
X9544850Y-15444730D01*
X9543810Y-15444676D01*
X9538098Y-15442483D01*
X9537618Y-15442068D01*
X9537557Y-15442012D01*
X9234809Y-15162916D01*
X9231812Y-15157582D01*
X9231633Y-15156156D01*
X9230171Y-15128261D01*
X9230354Y-15126178D01*
X9230323Y-15126175D01*
X9230388Y-15125618D01*
X9230514Y-15125072D01*
X9230514Y-15125000D01*
X9230248Y-15123832D01*
X9230000Y-15121630D01*
X9230000Y-14950503D01*
X9617303Y-14950503D01*
X9621035Y-14974893D01*
X9621161Y-14975280D01*
X9621960Y-14977724D01*
X9622450Y-14980800D01*
X9622450Y-15066975D01*
X9623613Y-15072823D01*
X9628045Y-15079455D01*
X9634677Y-15083887D01*
X9635633Y-15084077D01*
X9635633Y-15084077D01*
X9637901Y-15084528D01*
X9640525Y-15085050D01*
X9727673Y-15085050D01*
X9730318Y-15085410D01*
X9738895Y-15087789D01*
X9738895Y-15087789D01*
X9739287Y-15087897D01*
X9739692Y-15087941D01*
X9739692Y-15087941D01*
X9747005Y-15088722D01*
X9759429Y-15090050D01*
X9873755Y-15090050D01*
X9873958Y-15090033D01*
X9873959Y-15090033D01*
X9891686Y-15088576D01*
X9891687Y-15088576D01*
X9892091Y-15088542D01*
X9892485Y-15088444D01*
X9892485Y-15088444D01*
X9904808Y-15085348D01*
X9907220Y-15085050D01*
X9994475Y-15085050D01*
X9997100Y-15084528D01*
X9999367Y-15084077D01*
X9999367Y-15084077D01*
X10000323Y-15083887D01*
X10006955Y-15079455D01*
X10011387Y-15072823D01*
X10012550Y-15066975D01*
X10012550Y-14981581D01*
X10012878Y-14979053D01*
X10012934Y-14978843D01*
X10013069Y-14978461D01*
X10017396Y-14954169D01*
X10017441Y-14950503D01*
X18419803Y-14950503D01*
X18423535Y-14974893D01*
X18423661Y-14975280D01*
X18424460Y-14977724D01*
X18424950Y-14980800D01*
X18424950Y-15066975D01*
X18426113Y-15072823D01*
X18430545Y-15079455D01*
X18437177Y-15083887D01*
X18438133Y-15084077D01*
X18438133Y-15084077D01*
X18440401Y-15084528D01*
X18443025Y-15085050D01*
X18530173Y-15085050D01*
X18532818Y-15085410D01*
X18541395Y-15087789D01*
X18541395Y-15087789D01*
X18541787Y-15087897D01*
X18542192Y-15087941D01*
X18542192Y-15087941D01*
X18549505Y-15088722D01*
X18561929Y-15090050D01*
X18676255Y-15090050D01*
X18676458Y-15090033D01*
X18676459Y-15090033D01*
X18694186Y-15088576D01*
X18694187Y-15088576D01*
X18694591Y-15088542D01*
X18694985Y-15088444D01*
X18694985Y-15088444D01*
X18707308Y-15085348D01*
X18709720Y-15085050D01*
X18796975Y-15085050D01*
X18799600Y-15084528D01*
X18801867Y-15084077D01*
X18801867Y-15084077D01*
X18802823Y-15083887D01*
X18809455Y-15079455D01*
X18813887Y-15072823D01*
X18815050Y-15066975D01*
X18815050Y-14981581D01*
X18815378Y-14979053D01*
X18815434Y-14978843D01*
X18815569Y-14978461D01*
X18819896Y-14954169D01*
X18820198Y-14929497D01*
X18816465Y-14905107D01*
X18815540Y-14902276D01*
X18815050Y-14899200D01*
X18815050Y-14813025D01*
X18813887Y-14807177D01*
X18809455Y-14800545D01*
X18802823Y-14796113D01*
X18801867Y-14795923D01*
X18801867Y-14795923D01*
X18799600Y-14795472D01*
X18796975Y-14794950D01*
X18709827Y-14794950D01*
X18707182Y-14794590D01*
X18698605Y-14792211D01*
X18698605Y-14792211D01*
X18698213Y-14792103D01*
X18697808Y-14792059D01*
X18697808Y-14792059D01*
X18690495Y-14791278D01*
X18678071Y-14789950D01*
X18563745Y-14789950D01*
X18563542Y-14789967D01*
X18563541Y-14789967D01*
X18545814Y-14791424D01*
X18545813Y-14791424D01*
X18545409Y-14791457D01*
X18545016Y-14791556D01*
X18545015Y-14791556D01*
X18532692Y-14794652D01*
X18530280Y-14794950D01*
X18443025Y-14794950D01*
X18440401Y-14795472D01*
X18438133Y-14795923D01*
X18438133Y-14795923D01*
X18437177Y-14796113D01*
X18430545Y-14800545D01*
X18426113Y-14807177D01*
X18424950Y-14813025D01*
X18424950Y-14898419D01*
X18424622Y-14900947D01*
X18424566Y-14901157D01*
X18424431Y-14901539D01*
X18420104Y-14925831D01*
X18419803Y-14950503D01*
X10017441Y-14950503D01*
X10017698Y-14929497D01*
X10013965Y-14905107D01*
X10013040Y-14902276D01*
X10012550Y-14899200D01*
X10012550Y-14813025D01*
X10011387Y-14807177D01*
X10006955Y-14800545D01*
X10000323Y-14796113D01*
X9999367Y-14795923D01*
X9999367Y-14795923D01*
X9997100Y-14795472D01*
X9994475Y-14794950D01*
X9907327Y-14794950D01*
X9904682Y-14794590D01*
X9896105Y-14792211D01*
X9896105Y-14792211D01*
X9895713Y-14792103D01*
X9895308Y-14792059D01*
X9895308Y-14792059D01*
X9887995Y-14791278D01*
X9875571Y-14789950D01*
X9761245Y-14789950D01*
X9761042Y-14789967D01*
X9761041Y-14789967D01*
X9743314Y-14791424D01*
X9743313Y-14791424D01*
X9742909Y-14791457D01*
X9742516Y-14791556D01*
X9742515Y-14791556D01*
X9730192Y-14794652D01*
X9727780Y-14794950D01*
X9640525Y-14794950D01*
X9637901Y-14795472D01*
X9635633Y-14795923D01*
X9635633Y-14795923D01*
X9634677Y-14796113D01*
X9628045Y-14800545D01*
X9623613Y-14807177D01*
X9622450Y-14813025D01*
X9622450Y-14898419D01*
X9622122Y-14900947D01*
X9622066Y-14901157D01*
X9621931Y-14901539D01*
X9617604Y-14925831D01*
X9617303Y-14950503D01*
X9230000Y-14950503D01*
X9230000Y-14745536D01*
X10072032Y-14745536D01*
X10073244Y-14770782D01*
X10078175Y-14795571D01*
X10078299Y-14795917D01*
X10078299Y-14795917D01*
X10080252Y-14801356D01*
X10086716Y-14819359D01*
X10098679Y-14841624D01*
X10113802Y-14861876D01*
X10131752Y-14879670D01*
X10132048Y-14879887D01*
X10132048Y-14879887D01*
X10142733Y-14887721D01*
X10152135Y-14894615D01*
X10174503Y-14906383D01*
X10174850Y-14906504D01*
X10174850Y-14906505D01*
X10183090Y-14909382D01*
X10198364Y-14914716D01*
X10223196Y-14919431D01*
X10236941Y-14919971D01*
X10248084Y-14920408D01*
X10248085Y-14920408D01*
X10248451Y-14920423D01*
X10273576Y-14917671D01*
X10285797Y-14914454D01*
X10297664Y-14911330D01*
X10297664Y-14911329D01*
X10298018Y-14911236D01*
X10321241Y-14901259D01*
X10325831Y-14898419D01*
X10342421Y-14888153D01*
X10342421Y-14888152D01*
X10342733Y-14887959D01*
X10362024Y-14871628D01*
X10370835Y-14861581D01*
X10378446Y-14852902D01*
X10378447Y-14852902D01*
X10378689Y-14852626D01*
X10392362Y-14831368D01*
X10397626Y-14819683D01*
X10402592Y-14808659D01*
X10402743Y-14808324D01*
X10404937Y-14800545D01*
X10407920Y-14789967D01*
X10409603Y-14783998D01*
X10412793Y-14758925D01*
X10413027Y-14750000D01*
X10413008Y-14749753D01*
X10413008Y-14749752D01*
X10411181Y-14725160D01*
X10411181Y-14725159D01*
X10411154Y-14724794D01*
X10405576Y-14700143D01*
X10396415Y-14676586D01*
X10383873Y-14654643D01*
X10368226Y-14634794D01*
X10367958Y-14634542D01*
X10367958Y-14634542D01*
X10350083Y-14617727D01*
X10349816Y-14617476D01*
X10329049Y-14603069D01*
X10324389Y-14600771D01*
X10306711Y-14592053D01*
X10306710Y-14592053D01*
X10306381Y-14591890D01*
X10306030Y-14591778D01*
X10306030Y-14591778D01*
X10290209Y-14586714D01*
X10282309Y-14584185D01*
X10281947Y-14584126D01*
X10281947Y-14584126D01*
X10257724Y-14580181D01*
X10257724Y-14580181D01*
X10257362Y-14580122D01*
X10256996Y-14580117D01*
X10256996Y-14580117D01*
X10244726Y-14579957D01*
X10232090Y-14579791D01*
X10231727Y-14579841D01*
X10231726Y-14579841D01*
X10215770Y-14582012D01*
X10207046Y-14583200D01*
X10182780Y-14590272D01*
X10159827Y-14600854D01*
X10138690Y-14614712D01*
X10119833Y-14631542D01*
X10119599Y-14631824D01*
X10119599Y-14631824D01*
X10103907Y-14650692D01*
X10103672Y-14650975D01*
X10090560Y-14672582D01*
X10080785Y-14695891D01*
X10074564Y-14720388D01*
X10072032Y-14745536D01*
X9230000Y-14745536D01*
X9230000Y-14554541D01*
X9506700Y-14554541D01*
X9506729Y-14555075D01*
X9507308Y-14560403D01*
X9507593Y-14561602D01*
X9512235Y-14573985D01*
X9512906Y-14575211D01*
X9520786Y-14585726D01*
X9521774Y-14586714D01*
X9532289Y-14594594D01*
X9533515Y-14595265D01*
X9545898Y-14599907D01*
X9547097Y-14600192D01*
X9552425Y-14600771D01*
X9552959Y-14600800D01*
X9690532Y-14600800D01*
X9691801Y-14600388D01*
X9692100Y-14599976D01*
X9692100Y-14599232D01*
X9742900Y-14599232D01*
X9743312Y-14600500D01*
X9743724Y-14600800D01*
X9882041Y-14600800D01*
X9882575Y-14600771D01*
X9887904Y-14600192D01*
X9889102Y-14599907D01*
X9901486Y-14595265D01*
X9902711Y-14594594D01*
X9913226Y-14586714D01*
X9914214Y-14585726D01*
X9922094Y-14575211D01*
X9922765Y-14573985D01*
X9927407Y-14561602D01*
X9927692Y-14560403D01*
X9928271Y-14555075D01*
X9928300Y-14554541D01*
X9928300Y-14554541D01*
X18509200Y-14554541D01*
X18509229Y-14555075D01*
X18509808Y-14560403D01*
X18510093Y-14561602D01*
X18514735Y-14573985D01*
X18515406Y-14575211D01*
X18523286Y-14585726D01*
X18524274Y-14586714D01*
X18534789Y-14594594D01*
X18536015Y-14595265D01*
X18548398Y-14599907D01*
X18549597Y-14600192D01*
X18554925Y-14600771D01*
X18555459Y-14600800D01*
X18693032Y-14600800D01*
X18694301Y-14600388D01*
X18694600Y-14599976D01*
X18694600Y-14599232D01*
X18745400Y-14599232D01*
X18745812Y-14600500D01*
X18746224Y-14600800D01*
X18884541Y-14600800D01*
X18885075Y-14600771D01*
X18890404Y-14600192D01*
X18891602Y-14599907D01*
X18903986Y-14595265D01*
X18905211Y-14594594D01*
X18915726Y-14586714D01*
X18916714Y-14585726D01*
X18924594Y-14575211D01*
X18925265Y-14573985D01*
X18929907Y-14561602D01*
X18930192Y-14560403D01*
X18930771Y-14555075D01*
X18930800Y-14554541D01*
X18930800Y-14376968D01*
X18930388Y-14375699D01*
X18929976Y-14375400D01*
X18746968Y-14375400D01*
X18745700Y-14375812D01*
X18745400Y-14376224D01*
X18745400Y-14599232D01*
X18694600Y-14599232D01*
X18694600Y-14376968D01*
X18694188Y-14375699D01*
X18693776Y-14375400D01*
X18510768Y-14375400D01*
X18509500Y-14375812D01*
X18509200Y-14376224D01*
X18509200Y-14554541D01*
X9928300Y-14554541D01*
X9928300Y-14376968D01*
X9927888Y-14375699D01*
X9927476Y-14375400D01*
X9744468Y-14375400D01*
X9743200Y-14375812D01*
X9742900Y-14376224D01*
X9742900Y-14599232D01*
X9692100Y-14599232D01*
X9692100Y-14376968D01*
X9691688Y-14375699D01*
X9691276Y-14375400D01*
X9508268Y-14375400D01*
X9507000Y-14375812D01*
X9506700Y-14376224D01*
X9506700Y-14554541D01*
X9230000Y-14554541D01*
X9230000Y-14329444D01*
X15864490Y-14329444D01*
X15864582Y-14330144D01*
X15864582Y-14330144D01*
X15864708Y-14331112D01*
X15866163Y-14342239D01*
X15866447Y-14342884D01*
X15866447Y-14342885D01*
X15867146Y-14344472D01*
X15871360Y-14354051D01*
X15875512Y-14358990D01*
X15879210Y-14363389D01*
X15879210Y-14363389D01*
X15879664Y-14363929D01*
X15890406Y-14371080D01*
X15891079Y-14371290D01*
X15891079Y-14371290D01*
X15896565Y-14373004D01*
X15902723Y-14374928D01*
X15909174Y-14375046D01*
X15914920Y-14375151D01*
X15914920Y-14375151D01*
X15915625Y-14375164D01*
X15916306Y-14374979D01*
X15916306Y-14374979D01*
X15920483Y-14373840D01*
X15928075Y-14371770D01*
X15939072Y-14365018D01*
X15947732Y-14355451D01*
X15953359Y-14343837D01*
X15955500Y-14331112D01*
X15955513Y-14330000D01*
X15954515Y-14323032D01*
X18509200Y-14323032D01*
X18509612Y-14324300D01*
X18510024Y-14324600D01*
X18693032Y-14324600D01*
X18694301Y-14324188D01*
X18694600Y-14323776D01*
X18694600Y-14323032D01*
X18745400Y-14323032D01*
X18745812Y-14324300D01*
X18746224Y-14324600D01*
X18929232Y-14324600D01*
X18930500Y-14324188D01*
X18930800Y-14323776D01*
X18930800Y-14145459D01*
X18930771Y-14144925D01*
X18930192Y-14139596D01*
X18929907Y-14138398D01*
X18925265Y-14126014D01*
X18924594Y-14124789D01*
X18916714Y-14114274D01*
X18915726Y-14113286D01*
X18905211Y-14105406D01*
X18903986Y-14104735D01*
X18891602Y-14100093D01*
X18890403Y-14099808D01*
X18885075Y-14099229D01*
X18884541Y-14099200D01*
X18746968Y-14099200D01*
X18745700Y-14099612D01*
X18745400Y-14100024D01*
X18745400Y-14323032D01*
X18694600Y-14323032D01*
X18694600Y-14100768D01*
X18694188Y-14099500D01*
X18693776Y-14099200D01*
X18555459Y-14099200D01*
X18554925Y-14099229D01*
X18549597Y-14099808D01*
X18548398Y-14100093D01*
X18536015Y-14104735D01*
X18534789Y-14105406D01*
X18524274Y-14113286D01*
X18523286Y-14114274D01*
X18515406Y-14124789D01*
X18514735Y-14126014D01*
X18510093Y-14138398D01*
X18509808Y-14139597D01*
X18509229Y-14144925D01*
X18509200Y-14145459D01*
X18509200Y-14323032D01*
X15954515Y-14323032D01*
X15953684Y-14317226D01*
X15948343Y-14305479D01*
X15939919Y-14295703D01*
X15939328Y-14295319D01*
X15939327Y-14295319D01*
X15929682Y-14289068D01*
X15929091Y-14288684D01*
X15928415Y-14288482D01*
X15928415Y-14288482D01*
X15924133Y-14287202D01*
X15916727Y-14284987D01*
X15909064Y-14284940D01*
X15904528Y-14284912D01*
X15903823Y-14284908D01*
X15903145Y-14285101D01*
X15903145Y-14285101D01*
X15892093Y-14288260D01*
X15892093Y-14288260D01*
X15891415Y-14288454D01*
X15880502Y-14295340D01*
X15871960Y-14305012D01*
X15866475Y-14316693D01*
X15864490Y-14329444D01*
X9230000Y-14329444D01*
X9230000Y-14323032D01*
X9506700Y-14323032D01*
X9507112Y-14324300D01*
X9507524Y-14324600D01*
X9690532Y-14324600D01*
X9691801Y-14324188D01*
X9692100Y-14323776D01*
X9692100Y-14323032D01*
X9742900Y-14323032D01*
X9743312Y-14324300D01*
X9743724Y-14324600D01*
X9926732Y-14324600D01*
X9928000Y-14324188D01*
X9928300Y-14323776D01*
X9928300Y-14145459D01*
X9928271Y-14144925D01*
X9927692Y-14139596D01*
X9927407Y-14138398D01*
X9922765Y-14126014D01*
X9922094Y-14124789D01*
X9914214Y-14114274D01*
X9913226Y-14113286D01*
X9902711Y-14105406D01*
X9901486Y-14104735D01*
X9889102Y-14100093D01*
X9887903Y-14099808D01*
X9882575Y-14099229D01*
X9882041Y-14099200D01*
X9744468Y-14099200D01*
X9743200Y-14099612D01*
X9742900Y-14100024D01*
X9742900Y-14323032D01*
X9692100Y-14323032D01*
X9692100Y-14100768D01*
X9691688Y-14099500D01*
X9691276Y-14099200D01*
X9552959Y-14099200D01*
X9552425Y-14099229D01*
X9547097Y-14099808D01*
X9545898Y-14100093D01*
X9533515Y-14104735D01*
X9532289Y-14105406D01*
X9521774Y-14113286D01*
X9520786Y-14114274D01*
X9512906Y-14124789D01*
X9512235Y-14126014D01*
X9507593Y-14138398D01*
X9507308Y-14139597D01*
X9506729Y-14144925D01*
X9506700Y-14145459D01*
X9506700Y-14323032D01*
X9230000Y-14323032D01*
X9230000Y-14016944D01*
X13524490Y-14016944D01*
X13524582Y-14017644D01*
X13524582Y-14017644D01*
X13524708Y-14018612D01*
X13526163Y-14029739D01*
X13526447Y-14030384D01*
X13526447Y-14030385D01*
X13527146Y-14031972D01*
X13531360Y-14041551D01*
X13535512Y-14046490D01*
X13539210Y-14050889D01*
X13539210Y-14050889D01*
X13539664Y-14051429D01*
X13550406Y-14058580D01*
X13551079Y-14058790D01*
X13551079Y-14058790D01*
X13556565Y-14060504D01*
X13562723Y-14062428D01*
X13569174Y-14062546D01*
X13574920Y-14062651D01*
X13574920Y-14062651D01*
X13575625Y-14062664D01*
X13576306Y-14062479D01*
X13576306Y-14062479D01*
X13580483Y-14061340D01*
X13588075Y-14059270D01*
X13599072Y-14052518D01*
X13607732Y-14042951D01*
X13613359Y-14031337D01*
X13615319Y-14019683D01*
X13615436Y-14018989D01*
X13615436Y-14018989D01*
X13615500Y-14018612D01*
X13615513Y-14017500D01*
X13613684Y-14004726D01*
X13609679Y-13995917D01*
X13608635Y-13993621D01*
X13608635Y-13993621D01*
X13608343Y-13992979D01*
X13600909Y-13984352D01*
X13600380Y-13983737D01*
X13600380Y-13983737D01*
X13599919Y-13983203D01*
X13599328Y-13982819D01*
X13599327Y-13982819D01*
X13589682Y-13976568D01*
X13589091Y-13976184D01*
X13588415Y-13975982D01*
X13588415Y-13975982D01*
X13584133Y-13974702D01*
X13576727Y-13972487D01*
X13569064Y-13972440D01*
X13564528Y-13972412D01*
X13563823Y-13972408D01*
X13563145Y-13972601D01*
X13563145Y-13972601D01*
X13552093Y-13975760D01*
X13552093Y-13975760D01*
X13551415Y-13975954D01*
X13540502Y-13982840D01*
X13531960Y-13992512D01*
X13526475Y-14004193D01*
X13524490Y-14016944D01*
X9230000Y-14016944D01*
X9230000Y-13945536D01*
X18024532Y-13945536D01*
X18025744Y-13970782D01*
X18028444Y-13984352D01*
X18030194Y-13993150D01*
X18030675Y-13995571D01*
X18030799Y-13995917D01*
X18030799Y-13995917D01*
X18038412Y-14017121D01*
X18039216Y-14019359D01*
X18051179Y-14041624D01*
X18051399Y-14041919D01*
X18063841Y-14058580D01*
X18066302Y-14061876D01*
X18084252Y-14079670D01*
X18084548Y-14079887D01*
X18084548Y-14079887D01*
X18095233Y-14087721D01*
X18104635Y-14094615D01*
X18127003Y-14106383D01*
X18127350Y-14106504D01*
X18127350Y-14106505D01*
X18135590Y-14109382D01*
X18150864Y-14114716D01*
X18175696Y-14119431D01*
X18189441Y-14119971D01*
X18200584Y-14120408D01*
X18200585Y-14120408D01*
X18200951Y-14120423D01*
X18226076Y-14117671D01*
X18242732Y-14113286D01*
X18250164Y-14111330D01*
X18250164Y-14111329D01*
X18250518Y-14111236D01*
X18273741Y-14101259D01*
X18274053Y-14101066D01*
X18294921Y-14088153D01*
X18294921Y-14088152D01*
X18295233Y-14087959D01*
X18314524Y-14071628D01*
X18325685Y-14058901D01*
X18330946Y-14052902D01*
X18330947Y-14052902D01*
X18331189Y-14052626D01*
X18331595Y-14051995D01*
X18337820Y-14042316D01*
X18344862Y-14031368D01*
X18345911Y-14029040D01*
X18355092Y-14008659D01*
X18355243Y-14008324D01*
X18362103Y-13983998D01*
X18365293Y-13958925D01*
X18365527Y-13950000D01*
X18365508Y-13949753D01*
X18365508Y-13949752D01*
X18363681Y-13925160D01*
X18363681Y-13925159D01*
X18363654Y-13924794D01*
X18358076Y-13900143D01*
X18348915Y-13876586D01*
X18336373Y-13854643D01*
X18320726Y-13834794D01*
X18320458Y-13834542D01*
X18320458Y-13834542D01*
X18308685Y-13823467D01*
X18302316Y-13817476D01*
X18281549Y-13803069D01*
X18281219Y-13802907D01*
X18259211Y-13792053D01*
X18259210Y-13792053D01*
X18258881Y-13791890D01*
X18258530Y-13791778D01*
X18258530Y-13791778D01*
X18244011Y-13787130D01*
X18234809Y-13784185D01*
X18234447Y-13784126D01*
X18234447Y-13784126D01*
X18210224Y-13780181D01*
X18210224Y-13780181D01*
X18209862Y-13780122D01*
X18209496Y-13780117D01*
X18209496Y-13780117D01*
X18197226Y-13779957D01*
X18184590Y-13779791D01*
X18184227Y-13779841D01*
X18184226Y-13779841D01*
X18168270Y-13782012D01*
X18159546Y-13783200D01*
X18135280Y-13790272D01*
X18112327Y-13800854D01*
X18096579Y-13811178D01*
X18092067Y-13814137D01*
X18091190Y-13814712D01*
X18090917Y-13814956D01*
X18090917Y-13814956D01*
X18075465Y-13828747D01*
X18072333Y-13831542D01*
X18072099Y-13831824D01*
X18072099Y-13831824D01*
X18062107Y-13843837D01*
X18056172Y-13850975D01*
X18043060Y-13872582D01*
X18033285Y-13895891D01*
X18027064Y-13920388D01*
X18024532Y-13945536D01*
X9230000Y-13945536D01*
X9230000Y-13829444D01*
X13524490Y-13829444D01*
X13524582Y-13830144D01*
X13524582Y-13830144D01*
X13524708Y-13831112D01*
X13526163Y-13842239D01*
X13526447Y-13842884D01*
X13526447Y-13842885D01*
X13530145Y-13851289D01*
X13531360Y-13854051D01*
X13535512Y-13858990D01*
X13539210Y-13863389D01*
X13539210Y-13863389D01*
X13539664Y-13863929D01*
X13550406Y-13871080D01*
X13551079Y-13871290D01*
X13551079Y-13871290D01*
X13556302Y-13872922D01*
X13562723Y-13874928D01*
X13569174Y-13875046D01*
X13574920Y-13875151D01*
X13574920Y-13875151D01*
X13575625Y-13875164D01*
X13576306Y-13874979D01*
X13576306Y-13874979D01*
X13580483Y-13873840D01*
X13588075Y-13871770D01*
X13599072Y-13865018D01*
X13607732Y-13855451D01*
X13613359Y-13843837D01*
X13614460Y-13837294D01*
X13615436Y-13831489D01*
X13615436Y-13831489D01*
X13615500Y-13831112D01*
X13615513Y-13830000D01*
X13613684Y-13817226D01*
X13608343Y-13805479D01*
X13599919Y-13795703D01*
X13599328Y-13795319D01*
X13599327Y-13795319D01*
X13589682Y-13789068D01*
X13589091Y-13788684D01*
X13588415Y-13788482D01*
X13588415Y-13788482D01*
X13578066Y-13785387D01*
X13576727Y-13784987D01*
X13569064Y-13784940D01*
X13564528Y-13784912D01*
X13563823Y-13784908D01*
X13563145Y-13785101D01*
X13563145Y-13785101D01*
X13552093Y-13788260D01*
X13552093Y-13788260D01*
X13551415Y-13788454D01*
X13550819Y-13788830D01*
X13548533Y-13790272D01*
X13540502Y-13795340D01*
X13531960Y-13805012D01*
X13526475Y-13816693D01*
X13524490Y-13829444D01*
X9230000Y-13829444D01*
X9230000Y-13749444D01*
X14605740Y-13749444D01*
X14605832Y-13750144D01*
X14605832Y-13750144D01*
X14605958Y-13751112D01*
X14607413Y-13762239D01*
X14607697Y-13762884D01*
X14607697Y-13762885D01*
X14609365Y-13766674D01*
X14612610Y-13774051D01*
X14615507Y-13777497D01*
X14620460Y-13783389D01*
X14620460Y-13783389D01*
X14620914Y-13783929D01*
X14631656Y-13791080D01*
X14632329Y-13791290D01*
X14632329Y-13791290D01*
X14637815Y-13793004D01*
X14643973Y-13794928D01*
X14650424Y-13795046D01*
X14656170Y-13795151D01*
X14656170Y-13795151D01*
X14656875Y-13795164D01*
X14657556Y-13794979D01*
X14657556Y-13794979D01*
X14663998Y-13793222D01*
X14669325Y-13791770D01*
X14680322Y-13785018D01*
X14681875Y-13783302D01*
X14686499Y-13778194D01*
X15934490Y-13778194D01*
X15934582Y-13778894D01*
X15934582Y-13778894D01*
X15934699Y-13779791D01*
X15936163Y-13790989D01*
X15936447Y-13791634D01*
X15936447Y-13791635D01*
X15941076Y-13802155D01*
X15941360Y-13802801D01*
X15943756Y-13805650D01*
X15949210Y-13812139D01*
X15949210Y-13812139D01*
X15949664Y-13812679D01*
X15960406Y-13819830D01*
X15961079Y-13820040D01*
X15961079Y-13820040D01*
X15966565Y-13821754D01*
X15972723Y-13823678D01*
X15979174Y-13823796D01*
X15984920Y-13823901D01*
X15984920Y-13823901D01*
X15985625Y-13823914D01*
X15986306Y-13823729D01*
X15986306Y-13823729D01*
X15990483Y-13822590D01*
X15998075Y-13820520D01*
X16009072Y-13813768D01*
X16010547Y-13812139D01*
X16017259Y-13804723D01*
X16017259Y-13804723D01*
X16017732Y-13804201D01*
X16023359Y-13792587D01*
X16024772Y-13784185D01*
X16025436Y-13780239D01*
X16025436Y-13780239D01*
X16025500Y-13779862D01*
X16025513Y-13778750D01*
X16023684Y-13765976D01*
X16018343Y-13754229D01*
X16009919Y-13744453D01*
X16009328Y-13744069D01*
X16009327Y-13744069D01*
X15999682Y-13737818D01*
X15999091Y-13737434D01*
X15998415Y-13737232D01*
X15998415Y-13737232D01*
X15994133Y-13735952D01*
X15986727Y-13733737D01*
X15979064Y-13733690D01*
X15974528Y-13733662D01*
X15973823Y-13733658D01*
X15973145Y-13733851D01*
X15973145Y-13733851D01*
X15962093Y-13737010D01*
X15962093Y-13737010D01*
X15961415Y-13737204D01*
X15950502Y-13744090D01*
X15941960Y-13753762D01*
X15936475Y-13765443D01*
X15934490Y-13778194D01*
X14686499Y-13778194D01*
X14688509Y-13775973D01*
X14688509Y-13775973D01*
X14688982Y-13775451D01*
X14693493Y-13766140D01*
X14694301Y-13764472D01*
X14694301Y-13764472D01*
X14694609Y-13763837D01*
X14696196Y-13754400D01*
X14696686Y-13751489D01*
X14696686Y-13751489D01*
X14696750Y-13751112D01*
X14696763Y-13750000D01*
X14694934Y-13737226D01*
X14689593Y-13725479D01*
X14681169Y-13715703D01*
X14680578Y-13715319D01*
X14680577Y-13715319D01*
X14670932Y-13709068D01*
X14670341Y-13708684D01*
X14669665Y-13708482D01*
X14669665Y-13708482D01*
X14665383Y-13707202D01*
X14657977Y-13704987D01*
X14650314Y-13704940D01*
X14645778Y-13704912D01*
X14645073Y-13704908D01*
X14644395Y-13705101D01*
X14644395Y-13705101D01*
X14633343Y-13708260D01*
X14633343Y-13708260D01*
X14632665Y-13708454D01*
X14621752Y-13715340D01*
X14613210Y-13725012D01*
X14607725Y-13736693D01*
X14605740Y-13749444D01*
X9230000Y-13749444D01*
X9230000Y-13345536D01*
X10072032Y-13345536D01*
X10073244Y-13370782D01*
X10078175Y-13395571D01*
X10078299Y-13395917D01*
X10078299Y-13395917D01*
X10081538Y-13404937D01*
X10086716Y-13419359D01*
X10098679Y-13441624D01*
X10113802Y-13461876D01*
X10131752Y-13479670D01*
X10132048Y-13479887D01*
X10132048Y-13479887D01*
X10142733Y-13487721D01*
X10152135Y-13494615D01*
X10174503Y-13506383D01*
X10174850Y-13506504D01*
X10174850Y-13506505D01*
X10183090Y-13509382D01*
X10198364Y-13514716D01*
X10223196Y-13519431D01*
X10236941Y-13519971D01*
X10248084Y-13520408D01*
X10248085Y-13520408D01*
X10248451Y-13520423D01*
X10265770Y-13518526D01*
X11969452Y-13518526D01*
X11971176Y-13539055D01*
X11971309Y-13539520D01*
X11971309Y-13539520D01*
X11976683Y-13558260D01*
X11976854Y-13558859D01*
X11986271Y-13577182D01*
X11999068Y-13593327D01*
X11999436Y-13593640D01*
X11999436Y-13593640D01*
X12010702Y-13603228D01*
X12014756Y-13606679D01*
X12015179Y-13606915D01*
X12015179Y-13606915D01*
X12025860Y-13612885D01*
X12032740Y-13616730D01*
X12033200Y-13616879D01*
X12051872Y-13622946D01*
X12051873Y-13622946D01*
X12052333Y-13623096D01*
X12072789Y-13625535D01*
X12073272Y-13625498D01*
X12073272Y-13625498D01*
X12080054Y-13624976D01*
X12093330Y-13623955D01*
X12113172Y-13618414D01*
X12113604Y-13618197D01*
X12113604Y-13618196D01*
X12131129Y-13609344D01*
X12131129Y-13609344D01*
X12131561Y-13609126D01*
X12132229Y-13608603D01*
X12147413Y-13596741D01*
X12147414Y-13596740D01*
X12147795Y-13596442D01*
X12161256Y-13580847D01*
X12163123Y-13577561D01*
X12171193Y-13563355D01*
X12171193Y-13563355D01*
X12171432Y-13562934D01*
X12172034Y-13561126D01*
X12176832Y-13546701D01*
X13441804Y-13546701D01*
X13444881Y-13560352D01*
X13445123Y-13561126D01*
X13453218Y-13581062D01*
X13453584Y-13581786D01*
X13464827Y-13600132D01*
X13465306Y-13600787D01*
X13479393Y-13617050D01*
X13479973Y-13617618D01*
X13496529Y-13631363D01*
X13497192Y-13631827D01*
X13515771Y-13642684D01*
X13516501Y-13643033D01*
X13536604Y-13650710D01*
X13537381Y-13650936D01*
X13548064Y-13653109D01*
X13549385Y-13652959D01*
X13549600Y-13652140D01*
X13549600Y-13652095D01*
X13600400Y-13652095D01*
X13600812Y-13653364D01*
X13600965Y-13653475D01*
X13601488Y-13653524D01*
X13602929Y-13653339D01*
X13603720Y-13653171D01*
X13624330Y-13646988D01*
X13625085Y-13646692D01*
X13644409Y-13637225D01*
X13645105Y-13636810D01*
X13662623Y-13624315D01*
X13663241Y-13623792D01*
X13678483Y-13608603D01*
X13679009Y-13607986D01*
X13685147Y-13599444D01*
X14604490Y-13599444D01*
X14604582Y-13600144D01*
X14604582Y-13600144D01*
X14604666Y-13600787D01*
X14606163Y-13612239D01*
X14606447Y-13612884D01*
X14606447Y-13612885D01*
X14611076Y-13623405D01*
X14611360Y-13624051D01*
X14615512Y-13628990D01*
X14619210Y-13633389D01*
X14619210Y-13633389D01*
X14619664Y-13633929D01*
X14630406Y-13641080D01*
X14631079Y-13641290D01*
X14631079Y-13641290D01*
X14635541Y-13642684D01*
X14642723Y-13644928D01*
X14649174Y-13645046D01*
X14654920Y-13645151D01*
X14654920Y-13645151D01*
X14655625Y-13645164D01*
X14656306Y-13644979D01*
X14656306Y-13644979D01*
X14660483Y-13643840D01*
X14668075Y-13641770D01*
X14679072Y-13635018D01*
X14681961Y-13631827D01*
X14687259Y-13625973D01*
X14687259Y-13625973D01*
X14687732Y-13625451D01*
X14693359Y-13613837D01*
X14695500Y-13601112D01*
X14695513Y-13600000D01*
X14693684Y-13587226D01*
X14689117Y-13577182D01*
X14688635Y-13576121D01*
X14688635Y-13576121D01*
X14688343Y-13575479D01*
X14679919Y-13565703D01*
X14679328Y-13565319D01*
X14679327Y-13565319D01*
X14669682Y-13559068D01*
X14669091Y-13558684D01*
X14668415Y-13558482D01*
X14668415Y-13558482D01*
X14664133Y-13557202D01*
X14656727Y-13554987D01*
X14649064Y-13554940D01*
X14644528Y-13554912D01*
X14643823Y-13554908D01*
X14643145Y-13555101D01*
X14643145Y-13555101D01*
X14632093Y-13558260D01*
X14632093Y-13558260D01*
X14631415Y-13558454D01*
X14620502Y-13565340D01*
X14611960Y-13575012D01*
X14606475Y-13586693D01*
X14604490Y-13599444D01*
X13685147Y-13599444D01*
X13691565Y-13590512D01*
X13691982Y-13589818D01*
X13701516Y-13570527D01*
X13701814Y-13569774D01*
X13708070Y-13549184D01*
X13708241Y-13548394D01*
X13708430Y-13546955D01*
X13708187Y-13545643D01*
X13708057Y-13545519D01*
X13707529Y-13545400D01*
X13601968Y-13545400D01*
X13600699Y-13545812D01*
X13600400Y-13546224D01*
X13600400Y-13652095D01*
X13549600Y-13652095D01*
X13549600Y-13546968D01*
X13549188Y-13545699D01*
X13548776Y-13545400D01*
X13443079Y-13545400D01*
X13441846Y-13545801D01*
X13441804Y-13546701D01*
X12176832Y-13546701D01*
X12177782Y-13543845D01*
X12177782Y-13543845D01*
X12177935Y-13543386D01*
X12180517Y-13522947D01*
X12180558Y-13520000D01*
X12180414Y-13518526D01*
X16469452Y-13518526D01*
X16471176Y-13539055D01*
X16471309Y-13539520D01*
X16471309Y-13539520D01*
X16476683Y-13558260D01*
X16476854Y-13558859D01*
X16486271Y-13577182D01*
X16499068Y-13593327D01*
X16499436Y-13593640D01*
X16499436Y-13593640D01*
X16510702Y-13603228D01*
X16514756Y-13606679D01*
X16515179Y-13606915D01*
X16515179Y-13606915D01*
X16525860Y-13612885D01*
X16532740Y-13616730D01*
X16533200Y-13616879D01*
X16551872Y-13622946D01*
X16551873Y-13622946D01*
X16552333Y-13623096D01*
X16572789Y-13625535D01*
X16573272Y-13625498D01*
X16573272Y-13625498D01*
X16580054Y-13624976D01*
X16593330Y-13623955D01*
X16613172Y-13618414D01*
X16613604Y-13618197D01*
X16613604Y-13618196D01*
X16631129Y-13609344D01*
X16631129Y-13609344D01*
X16631561Y-13609126D01*
X16632229Y-13608603D01*
X16647413Y-13596741D01*
X16647414Y-13596740D01*
X16647795Y-13596442D01*
X16661256Y-13580847D01*
X16663123Y-13577561D01*
X16671193Y-13563355D01*
X16671193Y-13563355D01*
X16671432Y-13562934D01*
X16672034Y-13561126D01*
X16677782Y-13543845D01*
X16677782Y-13543845D01*
X16677935Y-13543386D01*
X16680517Y-13522947D01*
X16680558Y-13520000D01*
X16680321Y-13517578D01*
X16678595Y-13499978D01*
X16678595Y-13499978D01*
X16678548Y-13499497D01*
X16672593Y-13479775D01*
X16662922Y-13461585D01*
X16649901Y-13445620D01*
X16639723Y-13437200D01*
X16634400Y-13432796D01*
X16634400Y-13432796D01*
X16634027Y-13432488D01*
X16615905Y-13422690D01*
X16606193Y-13419683D01*
X16596687Y-13416741D01*
X16596687Y-13416741D01*
X16596225Y-13416598D01*
X16595745Y-13416547D01*
X16595744Y-13416547D01*
X16576218Y-13414495D01*
X16576218Y-13414495D01*
X16575737Y-13414444D01*
X16569735Y-13414990D01*
X16555702Y-13416267D01*
X16555702Y-13416268D01*
X16555220Y-13416311D01*
X16535457Y-13422128D01*
X16535029Y-13422352D01*
X16535029Y-13422352D01*
X16533943Y-13422920D01*
X16517200Y-13431673D01*
X16516823Y-13431976D01*
X16501522Y-13444278D01*
X16501522Y-13444278D01*
X16501145Y-13444581D01*
X16500833Y-13444953D01*
X16500833Y-13444953D01*
X16494395Y-13452626D01*
X16487902Y-13460363D01*
X16487669Y-13460788D01*
X16487669Y-13460788D01*
X16487071Y-13461876D01*
X16477978Y-13478416D01*
X16477831Y-13478877D01*
X16477831Y-13478878D01*
X16477400Y-13480238D01*
X16471748Y-13498053D01*
X16471694Y-13498534D01*
X16471694Y-13498534D01*
X16469558Y-13517578D01*
X16469452Y-13518526D01*
X12180414Y-13518526D01*
X12180321Y-13517578D01*
X12178595Y-13499978D01*
X12178595Y-13499978D01*
X12178548Y-13499497D01*
X12176749Y-13493538D01*
X13441406Y-13493538D01*
X13441576Y-13494346D01*
X13441757Y-13494510D01*
X13442179Y-13494600D01*
X13707078Y-13494600D01*
X13708273Y-13494212D01*
X13708306Y-13493246D01*
X13704095Y-13476481D01*
X13703833Y-13475713D01*
X13695253Y-13455981D01*
X13694870Y-13455266D01*
X13683183Y-13437200D01*
X13682688Y-13436557D01*
X13668206Y-13420643D01*
X13667614Y-13420090D01*
X13650727Y-13406753D01*
X13650052Y-13406305D01*
X13631214Y-13395906D01*
X13630475Y-13395574D01*
X13610192Y-13388391D01*
X13609408Y-13388184D01*
X13602459Y-13386946D01*
X13597062Y-13384064D01*
X13594389Y-13378560D01*
X13595462Y-13372537D01*
X13599871Y-13368294D01*
X13601533Y-13367664D01*
X13605987Y-13366421D01*
X13613172Y-13364414D01*
X13613604Y-13364197D01*
X13613604Y-13364196D01*
X13631129Y-13355344D01*
X13631129Y-13355344D01*
X13631561Y-13355126D01*
X13643366Y-13345903D01*
X13647413Y-13342741D01*
X13647414Y-13342740D01*
X13647795Y-13342442D01*
X13661256Y-13326847D01*
X13663123Y-13323561D01*
X13671193Y-13309355D01*
X13671193Y-13309355D01*
X13671432Y-13308934D01*
X13672788Y-13304859D01*
X13677782Y-13289845D01*
X13677782Y-13289845D01*
X13677935Y-13289386D01*
X13680517Y-13268947D01*
X13680558Y-13266000D01*
X13680414Y-13264526D01*
X16469452Y-13264526D01*
X16471176Y-13285055D01*
X16471309Y-13285520D01*
X16471309Y-13285520D01*
X16475502Y-13300143D01*
X16476854Y-13304859D01*
X16486271Y-13323182D01*
X16499068Y-13339327D01*
X16499436Y-13339640D01*
X16499436Y-13339640D01*
X16510702Y-13349228D01*
X16514756Y-13352679D01*
X16515179Y-13352915D01*
X16515179Y-13352915D01*
X16519134Y-13355126D01*
X16532740Y-13362730D01*
X16533200Y-13362879D01*
X16551872Y-13368946D01*
X16551873Y-13368946D01*
X16552333Y-13369096D01*
X16572789Y-13371535D01*
X16573272Y-13371498D01*
X16573272Y-13371498D01*
X16580054Y-13370976D01*
X16593330Y-13369955D01*
X16613172Y-13364414D01*
X16613604Y-13364197D01*
X16613604Y-13364196D01*
X16631129Y-13355344D01*
X16631129Y-13355344D01*
X16631561Y-13355126D01*
X16643366Y-13345903D01*
X16647413Y-13342741D01*
X16647414Y-13342740D01*
X16647795Y-13342442D01*
X16661256Y-13326847D01*
X16663123Y-13323561D01*
X16671193Y-13309355D01*
X16671193Y-13309355D01*
X16671432Y-13308934D01*
X16672788Y-13304859D01*
X16677782Y-13289845D01*
X16677782Y-13289845D01*
X16677935Y-13289386D01*
X16680517Y-13268947D01*
X16680558Y-13266000D01*
X16679085Y-13250975D01*
X16678595Y-13245978D01*
X16678595Y-13245978D01*
X16678548Y-13245497D01*
X16672593Y-13225775D01*
X16662922Y-13207585D01*
X16649901Y-13191620D01*
X16648646Y-13190581D01*
X16634400Y-13178796D01*
X16634400Y-13178796D01*
X16634027Y-13178488D01*
X16615905Y-13168690D01*
X16609585Y-13166733D01*
X16596687Y-13162741D01*
X16596687Y-13162741D01*
X16596225Y-13162598D01*
X16595745Y-13162547D01*
X16595744Y-13162547D01*
X16576218Y-13160495D01*
X16576218Y-13160495D01*
X16575737Y-13160444D01*
X16570488Y-13160922D01*
X16555702Y-13162267D01*
X16555702Y-13162268D01*
X16555220Y-13162311D01*
X16535457Y-13168128D01*
X16535029Y-13168352D01*
X16535029Y-13168352D01*
X16533943Y-13168920D01*
X16517200Y-13177673D01*
X16516823Y-13177976D01*
X16501522Y-13190278D01*
X16501522Y-13190278D01*
X16501145Y-13190581D01*
X16500833Y-13190953D01*
X16500833Y-13190953D01*
X16490803Y-13202907D01*
X16487902Y-13206363D01*
X16487669Y-13206788D01*
X16487669Y-13206788D01*
X16486995Y-13208013D01*
X16477978Y-13224416D01*
X16471748Y-13244053D01*
X16471694Y-13244534D01*
X16471694Y-13244534D01*
X16470525Y-13254961D01*
X16469452Y-13264526D01*
X13680414Y-13264526D01*
X13679085Y-13250975D01*
X13678595Y-13245978D01*
X13678595Y-13245978D01*
X13678548Y-13245497D01*
X13672593Y-13225775D01*
X13662922Y-13207585D01*
X13649901Y-13191620D01*
X13648646Y-13190581D01*
X13634400Y-13178796D01*
X13634400Y-13178796D01*
X13634027Y-13178488D01*
X13615905Y-13168690D01*
X13609585Y-13166733D01*
X13596687Y-13162741D01*
X13596687Y-13162741D01*
X13596225Y-13162598D01*
X13595745Y-13162547D01*
X13595744Y-13162547D01*
X13576218Y-13160495D01*
X13576218Y-13160495D01*
X13575737Y-13160444D01*
X13570488Y-13160922D01*
X13555702Y-13162267D01*
X13555702Y-13162268D01*
X13555220Y-13162311D01*
X13535457Y-13168128D01*
X13535029Y-13168352D01*
X13535029Y-13168352D01*
X13533943Y-13168920D01*
X13517200Y-13177673D01*
X13516823Y-13177976D01*
X13501522Y-13190278D01*
X13501522Y-13190278D01*
X13501145Y-13190581D01*
X13500833Y-13190953D01*
X13500833Y-13190953D01*
X13490803Y-13202907D01*
X13487902Y-13206363D01*
X13487669Y-13206788D01*
X13487669Y-13206788D01*
X13486995Y-13208013D01*
X13477978Y-13224416D01*
X13471748Y-13244053D01*
X13471694Y-13244534D01*
X13471694Y-13244534D01*
X13470525Y-13254961D01*
X13469452Y-13264526D01*
X13471176Y-13285055D01*
X13471309Y-13285520D01*
X13471309Y-13285520D01*
X13475502Y-13300143D01*
X13476854Y-13304859D01*
X13486271Y-13323182D01*
X13499068Y-13339327D01*
X13499436Y-13339640D01*
X13499436Y-13339640D01*
X13510702Y-13349228D01*
X13514756Y-13352679D01*
X13515179Y-13352915D01*
X13515179Y-13352915D01*
X13519134Y-13355126D01*
X13532740Y-13362730D01*
X13548194Y-13367751D01*
X13553144Y-13371348D01*
X13555035Y-13377167D01*
X13553144Y-13382986D01*
X13548194Y-13386582D01*
X13546633Y-13386953D01*
X13543823Y-13387383D01*
X13543034Y-13387571D01*
X13522581Y-13394256D01*
X13521835Y-13394569D01*
X13502748Y-13404505D01*
X13502063Y-13404937D01*
X13484854Y-13417857D01*
X13484249Y-13418395D01*
X13469383Y-13433951D01*
X13468873Y-13434581D01*
X13456747Y-13452357D01*
X13456347Y-13453061D01*
X13447287Y-13472579D01*
X13447007Y-13473339D01*
X13441406Y-13493538D01*
X12176749Y-13493538D01*
X12172593Y-13479775D01*
X12162922Y-13461585D01*
X12149901Y-13445620D01*
X12139723Y-13437200D01*
X12134400Y-13432796D01*
X12134400Y-13432796D01*
X12134027Y-13432488D01*
X12115905Y-13422690D01*
X12106193Y-13419683D01*
X12096687Y-13416741D01*
X12096687Y-13416741D01*
X12096225Y-13416598D01*
X12095745Y-13416547D01*
X12095744Y-13416547D01*
X12076218Y-13414495D01*
X12076218Y-13414495D01*
X12075737Y-13414444D01*
X12069735Y-13414990D01*
X12055702Y-13416267D01*
X12055702Y-13416268D01*
X12055220Y-13416311D01*
X12035457Y-13422128D01*
X12035029Y-13422352D01*
X12035029Y-13422352D01*
X12033943Y-13422920D01*
X12017200Y-13431673D01*
X12016823Y-13431976D01*
X12001522Y-13444278D01*
X12001522Y-13444278D01*
X12001145Y-13444581D01*
X12000833Y-13444953D01*
X12000833Y-13444953D01*
X11994395Y-13452626D01*
X11987902Y-13460363D01*
X11987669Y-13460788D01*
X11987669Y-13460788D01*
X11987071Y-13461876D01*
X11977978Y-13478416D01*
X11977831Y-13478877D01*
X11977831Y-13478878D01*
X11977400Y-13480238D01*
X11971748Y-13498053D01*
X11971694Y-13498534D01*
X11971694Y-13498534D01*
X11969558Y-13517578D01*
X11969452Y-13518526D01*
X10265770Y-13518526D01*
X10273576Y-13517671D01*
X10285797Y-13514454D01*
X10297664Y-13511330D01*
X10297664Y-13511329D01*
X10298018Y-13511236D01*
X10321241Y-13501259D01*
X10321553Y-13501066D01*
X10342421Y-13488153D01*
X10342421Y-13488152D01*
X10342733Y-13487959D01*
X10362024Y-13471628D01*
X10371531Y-13460788D01*
X10378446Y-13452902D01*
X10378447Y-13452902D01*
X10378689Y-13452626D01*
X10392362Y-13431368D01*
X10397626Y-13419683D01*
X10402592Y-13408659D01*
X10402743Y-13408324D01*
X10403186Y-13406753D01*
X10408649Y-13387383D01*
X10409603Y-13383998D01*
X10412793Y-13358925D01*
X10412951Y-13352915D01*
X10413020Y-13350249D01*
X10413020Y-13350249D01*
X10413027Y-13350000D01*
X10413008Y-13349753D01*
X10413008Y-13349752D01*
X10411181Y-13325160D01*
X10411181Y-13325159D01*
X10411154Y-13324794D01*
X10405576Y-13300143D01*
X10401571Y-13289845D01*
X10396548Y-13276928D01*
X10396548Y-13276928D01*
X10396415Y-13276586D01*
X10383873Y-13254643D01*
X10368226Y-13234794D01*
X10367958Y-13234542D01*
X10367958Y-13234542D01*
X10350083Y-13217727D01*
X10349816Y-13217476D01*
X10329049Y-13203069D01*
X10324389Y-13200771D01*
X10306711Y-13192053D01*
X10306710Y-13192053D01*
X10306381Y-13191890D01*
X10306030Y-13191778D01*
X10306030Y-13191778D01*
X10290209Y-13186714D01*
X10282309Y-13184185D01*
X10281947Y-13184126D01*
X10281947Y-13184126D01*
X10257724Y-13180181D01*
X10257724Y-13180181D01*
X10257362Y-13180122D01*
X10256996Y-13180117D01*
X10256996Y-13180117D01*
X10244726Y-13179957D01*
X10232090Y-13179791D01*
X10231727Y-13179841D01*
X10231726Y-13179841D01*
X10215770Y-13182012D01*
X10207046Y-13183200D01*
X10182780Y-13190272D01*
X10159827Y-13200854D01*
X10138690Y-13214712D01*
X10138417Y-13214956D01*
X10138417Y-13214956D01*
X10120107Y-13231298D01*
X10119833Y-13231542D01*
X10119599Y-13231824D01*
X10119599Y-13231824D01*
X10109028Y-13244534D01*
X10103672Y-13250975D01*
X10090560Y-13272582D01*
X10080785Y-13295891D01*
X10080695Y-13296247D01*
X10080695Y-13296247D01*
X10077589Y-13308475D01*
X10074564Y-13320388D01*
X10072032Y-13345536D01*
X9230000Y-13345536D01*
X9230000Y-13154541D01*
X9506700Y-13154541D01*
X9506729Y-13155075D01*
X9507308Y-13160403D01*
X9507593Y-13161602D01*
X9512235Y-13173985D01*
X9512906Y-13175211D01*
X9520786Y-13185726D01*
X9521774Y-13186714D01*
X9532289Y-13194594D01*
X9533515Y-13195265D01*
X9545898Y-13199907D01*
X9547097Y-13200192D01*
X9552425Y-13200771D01*
X9552959Y-13200800D01*
X9690532Y-13200800D01*
X9691801Y-13200388D01*
X9692100Y-13199976D01*
X9692100Y-13199232D01*
X9742900Y-13199232D01*
X9743312Y-13200500D01*
X9743724Y-13200800D01*
X9882041Y-13200800D01*
X9882575Y-13200771D01*
X9887904Y-13200192D01*
X9889102Y-13199907D01*
X9901486Y-13195265D01*
X9902711Y-13194594D01*
X9913226Y-13186714D01*
X9914214Y-13185726D01*
X9922094Y-13175211D01*
X9922765Y-13173985D01*
X9927407Y-13161602D01*
X9927692Y-13160403D01*
X9928271Y-13155075D01*
X9928300Y-13154541D01*
X9928300Y-13038701D01*
X11941804Y-13038701D01*
X11944881Y-13052352D01*
X11945123Y-13053126D01*
X11953218Y-13073062D01*
X11953584Y-13073786D01*
X11964827Y-13092132D01*
X11965306Y-13092787D01*
X11979393Y-13109050D01*
X11979973Y-13109618D01*
X11996529Y-13123363D01*
X11997192Y-13123827D01*
X12015771Y-13134684D01*
X12016501Y-13135033D01*
X12036604Y-13142710D01*
X12037381Y-13142936D01*
X12047799Y-13145055D01*
X12053124Y-13148068D01*
X12055662Y-13153636D01*
X12054442Y-13159632D01*
X12049931Y-13163765D01*
X12048621Y-13164254D01*
X12035457Y-13168128D01*
X12035029Y-13168352D01*
X12035029Y-13168352D01*
X12033943Y-13168920D01*
X12017200Y-13177673D01*
X12016823Y-13177976D01*
X12001522Y-13190278D01*
X12001522Y-13190278D01*
X12001145Y-13190581D01*
X12000833Y-13190953D01*
X12000833Y-13190953D01*
X11990803Y-13202907D01*
X11987902Y-13206363D01*
X11987669Y-13206788D01*
X11987669Y-13206788D01*
X11986995Y-13208013D01*
X11977978Y-13224416D01*
X11971748Y-13244053D01*
X11971694Y-13244534D01*
X11971694Y-13244534D01*
X11970525Y-13254961D01*
X11969452Y-13264526D01*
X11971176Y-13285055D01*
X11971309Y-13285520D01*
X11971309Y-13285520D01*
X11975502Y-13300143D01*
X11976854Y-13304859D01*
X11986271Y-13323182D01*
X11999068Y-13339327D01*
X11999436Y-13339640D01*
X11999436Y-13339640D01*
X12010702Y-13349228D01*
X12014756Y-13352679D01*
X12015179Y-13352915D01*
X12015179Y-13352915D01*
X12019134Y-13355126D01*
X12032740Y-13362730D01*
X12033200Y-13362879D01*
X12051872Y-13368946D01*
X12051873Y-13368946D01*
X12052333Y-13369096D01*
X12072789Y-13371535D01*
X12073272Y-13371498D01*
X12073272Y-13371498D01*
X12080054Y-13370976D01*
X12093330Y-13369955D01*
X12113172Y-13364414D01*
X12113604Y-13364197D01*
X12113604Y-13364196D01*
X12131129Y-13355344D01*
X12131129Y-13355344D01*
X12131561Y-13355126D01*
X12143366Y-13345903D01*
X12147413Y-13342741D01*
X12147414Y-13342740D01*
X12147795Y-13342442D01*
X12161256Y-13326847D01*
X12163123Y-13323561D01*
X12171193Y-13309355D01*
X12171193Y-13309355D01*
X12171432Y-13308934D01*
X12172788Y-13304859D01*
X12177782Y-13289845D01*
X12177782Y-13289845D01*
X12177935Y-13289386D01*
X12180517Y-13268947D01*
X12180558Y-13266000D01*
X12179085Y-13250975D01*
X12178595Y-13245978D01*
X12178595Y-13245978D01*
X12178548Y-13245497D01*
X12172593Y-13225775D01*
X12162922Y-13207585D01*
X12149901Y-13191620D01*
X12148646Y-13190581D01*
X12134400Y-13178796D01*
X12134400Y-13178796D01*
X12134027Y-13178488D01*
X12115905Y-13168690D01*
X12110504Y-13167018D01*
X12102206Y-13164449D01*
X12097206Y-13160922D01*
X12095235Y-13155130D01*
X12095417Y-13154541D01*
X18509200Y-13154541D01*
X18509229Y-13155075D01*
X18509808Y-13160403D01*
X18510093Y-13161602D01*
X18514735Y-13173985D01*
X18515406Y-13175211D01*
X18523286Y-13185726D01*
X18524274Y-13186714D01*
X18534789Y-13194594D01*
X18536015Y-13195265D01*
X18548398Y-13199907D01*
X18549597Y-13200192D01*
X18554925Y-13200771D01*
X18555459Y-13200800D01*
X18693032Y-13200800D01*
X18694301Y-13200388D01*
X18694600Y-13199976D01*
X18694600Y-13199232D01*
X18745400Y-13199232D01*
X18745812Y-13200500D01*
X18746224Y-13200800D01*
X18884541Y-13200800D01*
X18885075Y-13200771D01*
X18890404Y-13200192D01*
X18891602Y-13199907D01*
X18903986Y-13195265D01*
X18905211Y-13194594D01*
X18915726Y-13186714D01*
X18916714Y-13185726D01*
X18924594Y-13175211D01*
X18925265Y-13173985D01*
X18929907Y-13161602D01*
X18930192Y-13160403D01*
X18930771Y-13155075D01*
X18930800Y-13154541D01*
X18930800Y-12976968D01*
X18930388Y-12975699D01*
X18929976Y-12975400D01*
X18746968Y-12975400D01*
X18745700Y-12975812D01*
X18745400Y-12976224D01*
X18745400Y-13199232D01*
X18694600Y-13199232D01*
X18694600Y-12976968D01*
X18694188Y-12975699D01*
X18693776Y-12975400D01*
X18510768Y-12975400D01*
X18509500Y-12975812D01*
X18509200Y-12976224D01*
X18509200Y-13154541D01*
X12095417Y-13154541D01*
X12097044Y-13149285D01*
X12101943Y-13145620D01*
X12103075Y-13145308D01*
X12103720Y-13145171D01*
X12124330Y-13138988D01*
X12125085Y-13138692D01*
X12144409Y-13129225D01*
X12145105Y-13128810D01*
X12162623Y-13116315D01*
X12163241Y-13115792D01*
X12178483Y-13100603D01*
X12179009Y-13099986D01*
X12191565Y-13082512D01*
X12191982Y-13081818D01*
X12201516Y-13062527D01*
X12201814Y-13061774D01*
X12208070Y-13041184D01*
X12208241Y-13040394D01*
X12208430Y-13038955D01*
X12208187Y-13037643D01*
X12208057Y-13037519D01*
X12207529Y-13037400D01*
X11943079Y-13037400D01*
X11941846Y-13037801D01*
X11941804Y-13038701D01*
X9928300Y-13038701D01*
X9928300Y-12985538D01*
X11941406Y-12985538D01*
X11941576Y-12986346D01*
X11941757Y-12986510D01*
X11942179Y-12986600D01*
X12207078Y-12986600D01*
X12208273Y-12986212D01*
X12208306Y-12985246D01*
X12204095Y-12968481D01*
X12203833Y-12967713D01*
X12195253Y-12947981D01*
X12194870Y-12947266D01*
X12183183Y-12929200D01*
X12182688Y-12928557D01*
X12168206Y-12912643D01*
X12167614Y-12912090D01*
X12150727Y-12898753D01*
X12150052Y-12898305D01*
X12131214Y-12887906D01*
X12130475Y-12887574D01*
X12115532Y-12882282D01*
X12110677Y-12878557D01*
X12108940Y-12872691D01*
X12110982Y-12866923D01*
X12116025Y-12863458D01*
X12118836Y-12863050D01*
X12161975Y-12863050D01*
X12164599Y-12862528D01*
X12166867Y-12862077D01*
X12166867Y-12862077D01*
X12167823Y-12861887D01*
X12174455Y-12857455D01*
X12178887Y-12850823D01*
X12180050Y-12844975D01*
X12180050Y-12784701D01*
X13441804Y-12784701D01*
X13444881Y-12798352D01*
X13445123Y-12799126D01*
X13453218Y-12819062D01*
X13453584Y-12819786D01*
X13464827Y-12838132D01*
X13465306Y-12838787D01*
X13479393Y-12855050D01*
X13479973Y-12855618D01*
X13496529Y-12869363D01*
X13497192Y-12869827D01*
X13515771Y-12880684D01*
X13516501Y-12881033D01*
X13536604Y-12888710D01*
X13537381Y-12888936D01*
X13547799Y-12891055D01*
X13553124Y-12894068D01*
X13555662Y-12899636D01*
X13554442Y-12905632D01*
X13549931Y-12909765D01*
X13548621Y-12910254D01*
X13535457Y-12914128D01*
X13535029Y-12914352D01*
X13535029Y-12914352D01*
X13533943Y-12914920D01*
X13517200Y-12923673D01*
X13516186Y-12924488D01*
X13501522Y-12936278D01*
X13501522Y-12936278D01*
X13501145Y-12936581D01*
X13500833Y-12936953D01*
X13500833Y-12936953D01*
X13499958Y-12937995D01*
X13487902Y-12952363D01*
X13487669Y-12952788D01*
X13487669Y-12952788D01*
X13486995Y-12954013D01*
X13477978Y-12970416D01*
X13477831Y-12970877D01*
X13477831Y-12970878D01*
X13473273Y-12985246D01*
X13471748Y-12990053D01*
X13471694Y-12990534D01*
X13471694Y-12990534D01*
X13471586Y-12991497D01*
X13469452Y-13010526D01*
X13471176Y-13031055D01*
X13471309Y-13031520D01*
X13471309Y-13031520D01*
X13473854Y-13040394D01*
X13476854Y-13050859D01*
X13486271Y-13069182D01*
X13499068Y-13085327D01*
X13499436Y-13085640D01*
X13499436Y-13085640D01*
X13507064Y-13092132D01*
X13514756Y-13098679D01*
X13515179Y-13098915D01*
X13515179Y-13098915D01*
X13519134Y-13101126D01*
X13532740Y-13108730D01*
X13533200Y-13108879D01*
X13551872Y-13114946D01*
X13551873Y-13114946D01*
X13552333Y-13115096D01*
X13572789Y-13117535D01*
X13573272Y-13117498D01*
X13573272Y-13117498D01*
X13580054Y-13116976D01*
X13593330Y-13115955D01*
X13613172Y-13110414D01*
X13613604Y-13110197D01*
X13613604Y-13110196D01*
X13631129Y-13101344D01*
X13631129Y-13101344D01*
X13631561Y-13101126D01*
X13632229Y-13100603D01*
X13647413Y-13088741D01*
X13647414Y-13088740D01*
X13647795Y-13088442D01*
X13661256Y-13072847D01*
X13663123Y-13069561D01*
X13671193Y-13055355D01*
X13671193Y-13055355D01*
X13671432Y-13054934D01*
X13672034Y-13053126D01*
X13677782Y-13035845D01*
X13677782Y-13035845D01*
X13677935Y-13035386D01*
X13680517Y-13014947D01*
X13680558Y-13012000D01*
X13680414Y-13010526D01*
X16469452Y-13010526D01*
X16471176Y-13031055D01*
X16471309Y-13031520D01*
X16471309Y-13031520D01*
X16473854Y-13040394D01*
X16476854Y-13050859D01*
X16486271Y-13069182D01*
X16499068Y-13085327D01*
X16499436Y-13085640D01*
X16499436Y-13085640D01*
X16507064Y-13092132D01*
X16514756Y-13098679D01*
X16515179Y-13098915D01*
X16515179Y-13098915D01*
X16519134Y-13101126D01*
X16532740Y-13108730D01*
X16533200Y-13108879D01*
X16551872Y-13114946D01*
X16551873Y-13114946D01*
X16552333Y-13115096D01*
X16572789Y-13117535D01*
X16573272Y-13117498D01*
X16573272Y-13117498D01*
X16580054Y-13116976D01*
X16593330Y-13115955D01*
X16613172Y-13110414D01*
X16613604Y-13110197D01*
X16613604Y-13110196D01*
X16631129Y-13101344D01*
X16631129Y-13101344D01*
X16631561Y-13101126D01*
X16632229Y-13100603D01*
X16647413Y-13088741D01*
X16647414Y-13088740D01*
X16647795Y-13088442D01*
X16661256Y-13072847D01*
X16663123Y-13069561D01*
X16671193Y-13055355D01*
X16671193Y-13055355D01*
X16671432Y-13054934D01*
X16672034Y-13053126D01*
X16677782Y-13035845D01*
X16677782Y-13035845D01*
X16677935Y-13035386D01*
X16680517Y-13014947D01*
X16680558Y-13012000D01*
X16678548Y-12991497D01*
X16672593Y-12971775D01*
X16662922Y-12953585D01*
X16649901Y-12937620D01*
X16639723Y-12929200D01*
X16634400Y-12924796D01*
X16634400Y-12924796D01*
X16634027Y-12924488D01*
X16631334Y-12923032D01*
X18509200Y-12923032D01*
X18509612Y-12924300D01*
X18510024Y-12924600D01*
X18693032Y-12924600D01*
X18694301Y-12924188D01*
X18694600Y-12923776D01*
X18694600Y-12923032D01*
X18745400Y-12923032D01*
X18745812Y-12924300D01*
X18746224Y-12924600D01*
X18929232Y-12924600D01*
X18930500Y-12924188D01*
X18930800Y-12923776D01*
X18930800Y-12745459D01*
X18930771Y-12744925D01*
X18930192Y-12739596D01*
X18929907Y-12738398D01*
X18925265Y-12726014D01*
X18924594Y-12724789D01*
X18916714Y-12714274D01*
X18915726Y-12713286D01*
X18905211Y-12705406D01*
X18903986Y-12704735D01*
X18891602Y-12700093D01*
X18890403Y-12699808D01*
X18885075Y-12699229D01*
X18884541Y-12699200D01*
X18746968Y-12699200D01*
X18745700Y-12699612D01*
X18745400Y-12700024D01*
X18745400Y-12923032D01*
X18694600Y-12923032D01*
X18694600Y-12700768D01*
X18694188Y-12699500D01*
X18693776Y-12699200D01*
X18555459Y-12699200D01*
X18554925Y-12699229D01*
X18549597Y-12699808D01*
X18548398Y-12700093D01*
X18536015Y-12704735D01*
X18534789Y-12705406D01*
X18524274Y-12713286D01*
X18523286Y-12714274D01*
X18515406Y-12724789D01*
X18514735Y-12726014D01*
X18510093Y-12738398D01*
X18509808Y-12739597D01*
X18509229Y-12744925D01*
X18509200Y-12745459D01*
X18509200Y-12923032D01*
X16631334Y-12923032D01*
X16615905Y-12914690D01*
X16607507Y-12912090D01*
X16596687Y-12908741D01*
X16596687Y-12908741D01*
X16596225Y-12908598D01*
X16595745Y-12908547D01*
X16595744Y-12908547D01*
X16576218Y-12906495D01*
X16576218Y-12906495D01*
X16575737Y-12906444D01*
X16570488Y-12906922D01*
X16555702Y-12908267D01*
X16555702Y-12908268D01*
X16555220Y-12908311D01*
X16535457Y-12914128D01*
X16535029Y-12914352D01*
X16535029Y-12914352D01*
X16533943Y-12914920D01*
X16517200Y-12923673D01*
X16516186Y-12924488D01*
X16501522Y-12936278D01*
X16501522Y-12936278D01*
X16501145Y-12936581D01*
X16500833Y-12936953D01*
X16500833Y-12936953D01*
X16499958Y-12937995D01*
X16487902Y-12952363D01*
X16487669Y-12952788D01*
X16487669Y-12952788D01*
X16486995Y-12954013D01*
X16477978Y-12970416D01*
X16477831Y-12970877D01*
X16477831Y-12970878D01*
X16473273Y-12985246D01*
X16471748Y-12990053D01*
X16471694Y-12990534D01*
X16471694Y-12990534D01*
X16471586Y-12991497D01*
X16469452Y-13010526D01*
X13680414Y-13010526D01*
X13678548Y-12991497D01*
X13672593Y-12971775D01*
X13662922Y-12953585D01*
X13649901Y-12937620D01*
X13639723Y-12929200D01*
X13634400Y-12924796D01*
X13634400Y-12924796D01*
X13634027Y-12924488D01*
X13615905Y-12914690D01*
X13607507Y-12912090D01*
X13602206Y-12910449D01*
X13597206Y-12906922D01*
X13595235Y-12901130D01*
X13597044Y-12895285D01*
X13601943Y-12891620D01*
X13603075Y-12891308D01*
X13603720Y-12891171D01*
X13624330Y-12884988D01*
X13625085Y-12884692D01*
X13644409Y-12875225D01*
X13645105Y-12874810D01*
X13662623Y-12862315D01*
X13663241Y-12861792D01*
X13678483Y-12846603D01*
X13679009Y-12845986D01*
X13691565Y-12828512D01*
X13691982Y-12827818D01*
X13701516Y-12808527D01*
X13701814Y-12807774D01*
X13708070Y-12787184D01*
X13708241Y-12786394D01*
X13708430Y-12784955D01*
X13708187Y-12783643D01*
X13708057Y-12783519D01*
X13707529Y-12783400D01*
X13443079Y-12783400D01*
X13441846Y-12783801D01*
X13441804Y-12784701D01*
X12180050Y-12784701D01*
X12180050Y-12756526D01*
X16469452Y-12756526D01*
X16471176Y-12777055D01*
X16471309Y-12777520D01*
X16471309Y-12777520D01*
X16473854Y-12786394D01*
X16476854Y-12796859D01*
X16486271Y-12815182D01*
X16499068Y-12831327D01*
X16499436Y-12831640D01*
X16499436Y-12831640D01*
X16507064Y-12838132D01*
X16514756Y-12844679D01*
X16515179Y-12844915D01*
X16515179Y-12844915D01*
X16519134Y-12847126D01*
X16532740Y-12854730D01*
X16533200Y-12854879D01*
X16551872Y-12860946D01*
X16551873Y-12860946D01*
X16552333Y-12861096D01*
X16572789Y-12863535D01*
X16573272Y-12863498D01*
X16573272Y-12863498D01*
X16580326Y-12862955D01*
X16593330Y-12861955D01*
X16613172Y-12856414D01*
X16613604Y-12856197D01*
X16613604Y-12856196D01*
X16631129Y-12847344D01*
X16631129Y-12847344D01*
X16631561Y-12847126D01*
X16632229Y-12846603D01*
X16647413Y-12834741D01*
X16647414Y-12834740D01*
X16647795Y-12834442D01*
X16661256Y-12818847D01*
X16663123Y-12815561D01*
X16671193Y-12801355D01*
X16671193Y-12801355D01*
X16671432Y-12800934D01*
X16672034Y-12799126D01*
X16677782Y-12781845D01*
X16677782Y-12781845D01*
X16677935Y-12781386D01*
X16680517Y-12760947D01*
X16680558Y-12758000D01*
X16679329Y-12745459D01*
X16678595Y-12737978D01*
X16678595Y-12737978D01*
X16678548Y-12737497D01*
X16672593Y-12717775D01*
X16662922Y-12699585D01*
X16649901Y-12683620D01*
X16639723Y-12675200D01*
X16634400Y-12670796D01*
X16634400Y-12670796D01*
X16634027Y-12670488D01*
X16615905Y-12660690D01*
X16607507Y-12658090D01*
X16596687Y-12654741D01*
X16596687Y-12654741D01*
X16596225Y-12654598D01*
X16595745Y-12654547D01*
X16595744Y-12654547D01*
X16576218Y-12652495D01*
X16576218Y-12652495D01*
X16575737Y-12652444D01*
X16570704Y-12652902D01*
X16555702Y-12654267D01*
X16555702Y-12654268D01*
X16555220Y-12654311D01*
X16535457Y-12660128D01*
X16535029Y-12660352D01*
X16535029Y-12660352D01*
X16533943Y-12660920D01*
X16517200Y-12669673D01*
X16516823Y-12669976D01*
X16501522Y-12682278D01*
X16501522Y-12682278D01*
X16501145Y-12682581D01*
X16500833Y-12682953D01*
X16500833Y-12682953D01*
X16496470Y-12688153D01*
X16487902Y-12698363D01*
X16487669Y-12698788D01*
X16487669Y-12698788D01*
X16487216Y-12699612D01*
X16477978Y-12716416D01*
X16477831Y-12716877D01*
X16477831Y-12716878D01*
X16473273Y-12731246D01*
X16471748Y-12736053D01*
X16471694Y-12736534D01*
X16471694Y-12736534D01*
X16470753Y-12744925D01*
X16469452Y-12756526D01*
X12180050Y-12756526D01*
X12180050Y-12731538D01*
X13441406Y-12731538D01*
X13441576Y-12732346D01*
X13441757Y-12732510D01*
X13442179Y-12732600D01*
X13707078Y-12732600D01*
X13708273Y-12732212D01*
X13708306Y-12731246D01*
X13704095Y-12714481D01*
X13703833Y-12713713D01*
X13695253Y-12693981D01*
X13694870Y-12693266D01*
X13683183Y-12675200D01*
X13682688Y-12674557D01*
X13668206Y-12658643D01*
X13667614Y-12658090D01*
X13650727Y-12644753D01*
X13650052Y-12644305D01*
X13631214Y-12633906D01*
X13630475Y-12633574D01*
X13610192Y-12626391D01*
X13609408Y-12626184D01*
X13602459Y-12624946D01*
X13597062Y-12622064D01*
X13594389Y-12616560D01*
X13595462Y-12610537D01*
X13599871Y-12606294D01*
X13601533Y-12605664D01*
X13605987Y-12604421D01*
X13613172Y-12602414D01*
X13613604Y-12602197D01*
X13613604Y-12602196D01*
X13631129Y-12593344D01*
X13631129Y-12593344D01*
X13631561Y-12593126D01*
X13635094Y-12590365D01*
X13647413Y-12580741D01*
X13647414Y-12580740D01*
X13647795Y-12580442D01*
X13661256Y-12564847D01*
X13663123Y-12561561D01*
X13671193Y-12547355D01*
X13671193Y-12547355D01*
X13671432Y-12546934D01*
X13672019Y-12545171D01*
X13677782Y-12527845D01*
X13677782Y-12527845D01*
X13677935Y-12527386D01*
X13678819Y-12520388D01*
X13680482Y-12507223D01*
X13680517Y-12506947D01*
X13680558Y-12504000D01*
X13680367Y-12502045D01*
X13678595Y-12483978D01*
X13678595Y-12483978D01*
X13678548Y-12483497D01*
X13676565Y-12476928D01*
X13672733Y-12464238D01*
X13672593Y-12463775D01*
X13670291Y-12459444D01*
X16054490Y-12459444D01*
X16054582Y-12460144D01*
X16054582Y-12460144D01*
X16054708Y-12461112D01*
X16056163Y-12472239D01*
X16056447Y-12472884D01*
X16056447Y-12472885D01*
X16060693Y-12482534D01*
X16061360Y-12484051D01*
X16063410Y-12486489D01*
X16069210Y-12493389D01*
X16069210Y-12493389D01*
X16069664Y-12493929D01*
X16080406Y-12501080D01*
X16081079Y-12501290D01*
X16081079Y-12501290D01*
X16086565Y-12503004D01*
X16092723Y-12504928D01*
X16099174Y-12505046D01*
X16104920Y-12505151D01*
X16104920Y-12505151D01*
X16105625Y-12505164D01*
X16106306Y-12504979D01*
X16106306Y-12504979D01*
X16110907Y-12503724D01*
X16118075Y-12501770D01*
X16129072Y-12495018D01*
X16130058Y-12493929D01*
X16137259Y-12485973D01*
X16137259Y-12485973D01*
X16137732Y-12485451D01*
X16143359Y-12473837D01*
X16145280Y-12462416D01*
X16145436Y-12461489D01*
X16145436Y-12461489D01*
X16145500Y-12461112D01*
X16145513Y-12460000D01*
X16145434Y-12459444D01*
X16204490Y-12459444D01*
X16204582Y-12460144D01*
X16204582Y-12460144D01*
X16204708Y-12461112D01*
X16206163Y-12472239D01*
X16206447Y-12472884D01*
X16206447Y-12472885D01*
X16210693Y-12482534D01*
X16211360Y-12484051D01*
X16213410Y-12486489D01*
X16219210Y-12493389D01*
X16219210Y-12493389D01*
X16219664Y-12493929D01*
X16230406Y-12501080D01*
X16231079Y-12501290D01*
X16231079Y-12501290D01*
X16236565Y-12503004D01*
X16242723Y-12504928D01*
X16249174Y-12505046D01*
X16254920Y-12505151D01*
X16254920Y-12505151D01*
X16255625Y-12505164D01*
X16256306Y-12504979D01*
X16256306Y-12504979D01*
X16260907Y-12503724D01*
X16265302Y-12502526D01*
X16469452Y-12502526D01*
X16471176Y-12523055D01*
X16476854Y-12542859D01*
X16486271Y-12561182D01*
X16499068Y-12577327D01*
X16499436Y-12577640D01*
X16499436Y-12577640D01*
X16506906Y-12583998D01*
X16514756Y-12590679D01*
X16515179Y-12590915D01*
X16515179Y-12590915D01*
X16523510Y-12595571D01*
X16532740Y-12600730D01*
X16533200Y-12600879D01*
X16551872Y-12606946D01*
X16551873Y-12606946D01*
X16552333Y-12607096D01*
X16572789Y-12609535D01*
X16573272Y-12609498D01*
X16573272Y-12609498D01*
X16580054Y-12608976D01*
X16593330Y-12607955D01*
X16613172Y-12602414D01*
X16613604Y-12602197D01*
X16613604Y-12602196D01*
X16631129Y-12593344D01*
X16631129Y-12593344D01*
X16631561Y-12593126D01*
X16635094Y-12590365D01*
X16647413Y-12580741D01*
X16647414Y-12580740D01*
X16647795Y-12580442D01*
X16661256Y-12564847D01*
X16663123Y-12561561D01*
X16671193Y-12547355D01*
X16671193Y-12547355D01*
X16671432Y-12546934D01*
X16671897Y-12545536D01*
X18024532Y-12545536D01*
X18025744Y-12570782D01*
X18030675Y-12595571D01*
X18030799Y-12595917D01*
X18030799Y-12595917D01*
X18034299Y-12605664D01*
X18039216Y-12619359D01*
X18051179Y-12641624D01*
X18066302Y-12661876D01*
X18084252Y-12679670D01*
X18084548Y-12679887D01*
X18084548Y-12679887D01*
X18088223Y-12682581D01*
X18104635Y-12694615D01*
X18127003Y-12706383D01*
X18127350Y-12706504D01*
X18127350Y-12706505D01*
X18135590Y-12709382D01*
X18150864Y-12714716D01*
X18175696Y-12719431D01*
X18189441Y-12719971D01*
X18200584Y-12720408D01*
X18200585Y-12720408D01*
X18200951Y-12720423D01*
X18226076Y-12717671D01*
X18242732Y-12713286D01*
X18250164Y-12711330D01*
X18250164Y-12711329D01*
X18250518Y-12711236D01*
X18273741Y-12701259D01*
X18274053Y-12701066D01*
X18294921Y-12688153D01*
X18294921Y-12688152D01*
X18295233Y-12687959D01*
X18299916Y-12683995D01*
X18311064Y-12674557D01*
X18314524Y-12671628D01*
X18323915Y-12660920D01*
X18330946Y-12652902D01*
X18330947Y-12652902D01*
X18331189Y-12652626D01*
X18344862Y-12631368D01*
X18347755Y-12624946D01*
X18355092Y-12608659D01*
X18355243Y-12608324D01*
X18355589Y-12607096D01*
X18362004Y-12584352D01*
X18362103Y-12583998D01*
X18365293Y-12558925D01*
X18365527Y-12550000D01*
X18365508Y-12549753D01*
X18365508Y-12549752D01*
X18363681Y-12525160D01*
X18363681Y-12525159D01*
X18363654Y-12524794D01*
X18358076Y-12500143D01*
X18357808Y-12499455D01*
X18349048Y-12476928D01*
X18349048Y-12476928D01*
X18348915Y-12476586D01*
X18336373Y-12454643D01*
X18320726Y-12434794D01*
X18320458Y-12434542D01*
X18320458Y-12434542D01*
X18307078Y-12421955D01*
X18302316Y-12417476D01*
X18281549Y-12403069D01*
X18281219Y-12402907D01*
X18259211Y-12392053D01*
X18259210Y-12392053D01*
X18258881Y-12391890D01*
X18258530Y-12391778D01*
X18258530Y-12391778D01*
X18244011Y-12387130D01*
X18234809Y-12384185D01*
X18234447Y-12384126D01*
X18234447Y-12384126D01*
X18210224Y-12380181D01*
X18210224Y-12380181D01*
X18209862Y-12380122D01*
X18209496Y-12380117D01*
X18209496Y-12380117D01*
X18197226Y-12379957D01*
X18184590Y-12379791D01*
X18184227Y-12379841D01*
X18184226Y-12379841D01*
X18172114Y-12381489D01*
X18159546Y-12383200D01*
X18135280Y-12390272D01*
X18112327Y-12400854D01*
X18096579Y-12411178D01*
X18091788Y-12414320D01*
X18091190Y-12414712D01*
X18090917Y-12414956D01*
X18090917Y-12414956D01*
X18072607Y-12431298D01*
X18072333Y-12431542D01*
X18072099Y-12431824D01*
X18072099Y-12431824D01*
X18059153Y-12447390D01*
X18056172Y-12450975D01*
X18043060Y-12472582D01*
X18033285Y-12495891D01*
X18033195Y-12496247D01*
X18033195Y-12496247D01*
X18029697Y-12510022D01*
X18027064Y-12520388D01*
X18024532Y-12545536D01*
X16671897Y-12545536D01*
X16672019Y-12545171D01*
X16677782Y-12527845D01*
X16677782Y-12527845D01*
X16677935Y-12527386D01*
X16678819Y-12520388D01*
X16680482Y-12507223D01*
X16680517Y-12506947D01*
X16680558Y-12504000D01*
X16680367Y-12502045D01*
X16678595Y-12483978D01*
X16678595Y-12483978D01*
X16678548Y-12483497D01*
X16676565Y-12476928D01*
X16672733Y-12464238D01*
X16672593Y-12463775D01*
X16662922Y-12445585D01*
X16649901Y-12429620D01*
X16639832Y-12421290D01*
X16634400Y-12416796D01*
X16634400Y-12416796D01*
X16634027Y-12416488D01*
X16615905Y-12406690D01*
X16607381Y-12404051D01*
X16596687Y-12400741D01*
X16596687Y-12400741D01*
X16596225Y-12400598D01*
X16595745Y-12400547D01*
X16595744Y-12400547D01*
X16576218Y-12398495D01*
X16576218Y-12398495D01*
X16575737Y-12398444D01*
X16569735Y-12398990D01*
X16555702Y-12400267D01*
X16555702Y-12400268D01*
X16555220Y-12400311D01*
X16535457Y-12406128D01*
X16535029Y-12406352D01*
X16535029Y-12406352D01*
X16533943Y-12406920D01*
X16517200Y-12415673D01*
X16516823Y-12415976D01*
X16501522Y-12428278D01*
X16501522Y-12428278D01*
X16501145Y-12428581D01*
X16500833Y-12428953D01*
X16500833Y-12428953D01*
X16495213Y-12435650D01*
X16487902Y-12444363D01*
X16487669Y-12444788D01*
X16487669Y-12444788D01*
X16486995Y-12446013D01*
X16477978Y-12462416D01*
X16477831Y-12462877D01*
X16477831Y-12462878D01*
X16473583Y-12476268D01*
X16471748Y-12482053D01*
X16471694Y-12482534D01*
X16471694Y-12482534D01*
X16469591Y-12501290D01*
X16469452Y-12502526D01*
X16265302Y-12502526D01*
X16268075Y-12501770D01*
X16279072Y-12495018D01*
X16280058Y-12493929D01*
X16287259Y-12485973D01*
X16287259Y-12485973D01*
X16287732Y-12485451D01*
X16293359Y-12473837D01*
X16295280Y-12462416D01*
X16295436Y-12461489D01*
X16295436Y-12461489D01*
X16295500Y-12461112D01*
X16295513Y-12460000D01*
X16293684Y-12447226D01*
X16288343Y-12435479D01*
X16279919Y-12425703D01*
X16279328Y-12425319D01*
X16279327Y-12425319D01*
X16269682Y-12419068D01*
X16269091Y-12418684D01*
X16268415Y-12418482D01*
X16268415Y-12418482D01*
X16260979Y-12416258D01*
X16256727Y-12414987D01*
X16249064Y-12414940D01*
X16244528Y-12414912D01*
X16243823Y-12414908D01*
X16243145Y-12415101D01*
X16243145Y-12415101D01*
X16232093Y-12418260D01*
X16232093Y-12418260D01*
X16231415Y-12418454D01*
X16220502Y-12425340D01*
X16211960Y-12435012D01*
X16206475Y-12446693D01*
X16204490Y-12459444D01*
X16145434Y-12459444D01*
X16143684Y-12447226D01*
X16138343Y-12435479D01*
X16129919Y-12425703D01*
X16129328Y-12425319D01*
X16129327Y-12425319D01*
X16119682Y-12419068D01*
X16119091Y-12418684D01*
X16118415Y-12418482D01*
X16118415Y-12418482D01*
X16110979Y-12416258D01*
X16106727Y-12414987D01*
X16099064Y-12414940D01*
X16094528Y-12414912D01*
X16093823Y-12414908D01*
X16093145Y-12415101D01*
X16093145Y-12415101D01*
X16082093Y-12418260D01*
X16082093Y-12418260D01*
X16081415Y-12418454D01*
X16070502Y-12425340D01*
X16061960Y-12435012D01*
X16056475Y-12446693D01*
X16054490Y-12459444D01*
X13670291Y-12459444D01*
X13662922Y-12445585D01*
X13649901Y-12429620D01*
X13639832Y-12421290D01*
X13634400Y-12416796D01*
X13634400Y-12416796D01*
X13634027Y-12416488D01*
X13615905Y-12406690D01*
X13607381Y-12404051D01*
X13596687Y-12400741D01*
X13596687Y-12400741D01*
X13596225Y-12400598D01*
X13595745Y-12400547D01*
X13595744Y-12400547D01*
X13576218Y-12398495D01*
X13576218Y-12398495D01*
X13575737Y-12398444D01*
X13569735Y-12398990D01*
X13555702Y-12400267D01*
X13555702Y-12400268D01*
X13555220Y-12400311D01*
X13535457Y-12406128D01*
X13535029Y-12406352D01*
X13535029Y-12406352D01*
X13533943Y-12406920D01*
X13517200Y-12415673D01*
X13516823Y-12415976D01*
X13501522Y-12428278D01*
X13501522Y-12428278D01*
X13501145Y-12428581D01*
X13500833Y-12428953D01*
X13500833Y-12428953D01*
X13495213Y-12435650D01*
X13487902Y-12444363D01*
X13487669Y-12444788D01*
X13487669Y-12444788D01*
X13486995Y-12446013D01*
X13477978Y-12462416D01*
X13477831Y-12462877D01*
X13477831Y-12462878D01*
X13473583Y-12476268D01*
X13471748Y-12482053D01*
X13471694Y-12482534D01*
X13471694Y-12482534D01*
X13469591Y-12501290D01*
X13469452Y-12502526D01*
X13471176Y-12523055D01*
X13476854Y-12542859D01*
X13486271Y-12561182D01*
X13499068Y-12577327D01*
X13499436Y-12577640D01*
X13499436Y-12577640D01*
X13506906Y-12583998D01*
X13514756Y-12590679D01*
X13515179Y-12590915D01*
X13515179Y-12590915D01*
X13523510Y-12595571D01*
X13532740Y-12600730D01*
X13548194Y-12605751D01*
X13553144Y-12609348D01*
X13555035Y-12615167D01*
X13553144Y-12620986D01*
X13548194Y-12624582D01*
X13546633Y-12624953D01*
X13543823Y-12625383D01*
X13543034Y-12625571D01*
X13522581Y-12632256D01*
X13521835Y-12632569D01*
X13502748Y-12642505D01*
X13502063Y-12642937D01*
X13484854Y-12655857D01*
X13484249Y-12656395D01*
X13469383Y-12671951D01*
X13468873Y-12672581D01*
X13456747Y-12690357D01*
X13456347Y-12691061D01*
X13447287Y-12710579D01*
X13447007Y-12711339D01*
X13441406Y-12731538D01*
X12180050Y-12731538D01*
X12180050Y-12671025D01*
X12178887Y-12665177D01*
X12174455Y-12658545D01*
X12167823Y-12654113D01*
X12166867Y-12653923D01*
X12166867Y-12653923D01*
X12164599Y-12653472D01*
X12161975Y-12652950D01*
X11988025Y-12652950D01*
X11985400Y-12653472D01*
X11983133Y-12653923D01*
X11983133Y-12653923D01*
X11982177Y-12654113D01*
X11975545Y-12658545D01*
X11971113Y-12665177D01*
X11969950Y-12671025D01*
X11969950Y-12844975D01*
X11971113Y-12850823D01*
X11975545Y-12857455D01*
X11982177Y-12861887D01*
X11983133Y-12862077D01*
X11983133Y-12862077D01*
X11985400Y-12862528D01*
X11988025Y-12863050D01*
X12031424Y-12863050D01*
X12037243Y-12864941D01*
X12040840Y-12869891D01*
X12040840Y-12876009D01*
X12037243Y-12880959D01*
X12034500Y-12882360D01*
X12022581Y-12886256D01*
X12021835Y-12886569D01*
X12002748Y-12896505D01*
X12002063Y-12896937D01*
X11984854Y-12909857D01*
X11984249Y-12910395D01*
X11969383Y-12925951D01*
X11968873Y-12926581D01*
X11956747Y-12944357D01*
X11956347Y-12945061D01*
X11947287Y-12964579D01*
X11947007Y-12965339D01*
X11941406Y-12985538D01*
X9928300Y-12985538D01*
X9928300Y-12976968D01*
X9927888Y-12975699D01*
X9927476Y-12975400D01*
X9744468Y-12975400D01*
X9743200Y-12975812D01*
X9742900Y-12976224D01*
X9742900Y-13199232D01*
X9692100Y-13199232D01*
X9692100Y-12976968D01*
X9691688Y-12975699D01*
X9691276Y-12975400D01*
X9508268Y-12975400D01*
X9507000Y-12975812D01*
X9506700Y-12976224D01*
X9506700Y-13154541D01*
X9230000Y-13154541D01*
X9230000Y-12923032D01*
X9506700Y-12923032D01*
X9507112Y-12924300D01*
X9507524Y-12924600D01*
X9690532Y-12924600D01*
X9691801Y-12924188D01*
X9692100Y-12923776D01*
X9692100Y-12923032D01*
X9742900Y-12923032D01*
X9743312Y-12924300D01*
X9743724Y-12924600D01*
X9926732Y-12924600D01*
X9928000Y-12924188D01*
X9928300Y-12923776D01*
X9928300Y-12745459D01*
X9928271Y-12744925D01*
X9927692Y-12739596D01*
X9927407Y-12738398D01*
X9922765Y-12726014D01*
X9922094Y-12724789D01*
X9914214Y-12714274D01*
X9913226Y-12713286D01*
X9902711Y-12705406D01*
X9901486Y-12704735D01*
X9889102Y-12700093D01*
X9887903Y-12699808D01*
X9882575Y-12699229D01*
X9882041Y-12699200D01*
X9744468Y-12699200D01*
X9743200Y-12699612D01*
X9742900Y-12700024D01*
X9742900Y-12923032D01*
X9692100Y-12923032D01*
X9692100Y-12700768D01*
X9691688Y-12699500D01*
X9691276Y-12699200D01*
X9552959Y-12699200D01*
X9552425Y-12699229D01*
X9547097Y-12699808D01*
X9545898Y-12700093D01*
X9533515Y-12704735D01*
X9532289Y-12705406D01*
X9521774Y-12713286D01*
X9520786Y-12714274D01*
X9512906Y-12724789D01*
X9512235Y-12726014D01*
X9507593Y-12738398D01*
X9507308Y-12739597D01*
X9506729Y-12744925D01*
X9506700Y-12745459D01*
X9506700Y-12923032D01*
X9230000Y-12923032D01*
X9230000Y-12370503D01*
X9617303Y-12370503D01*
X9621035Y-12394893D01*
X9621161Y-12395280D01*
X9621960Y-12397724D01*
X9622450Y-12400800D01*
X9622450Y-12486975D01*
X9623613Y-12492823D01*
X9628045Y-12499455D01*
X9634677Y-12503887D01*
X9635633Y-12504077D01*
X9635633Y-12504077D01*
X9637901Y-12504528D01*
X9640525Y-12505050D01*
X9727673Y-12505050D01*
X9730318Y-12505410D01*
X9738895Y-12507789D01*
X9738895Y-12507789D01*
X9739287Y-12507897D01*
X9739692Y-12507941D01*
X9739692Y-12507941D01*
X9747005Y-12508722D01*
X9759429Y-12510050D01*
X9873755Y-12510050D01*
X9873958Y-12510033D01*
X9873959Y-12510033D01*
X9891686Y-12508576D01*
X9891687Y-12508576D01*
X9892091Y-12508542D01*
X9892485Y-12508444D01*
X9892485Y-12508444D01*
X9904808Y-12505348D01*
X9907220Y-12505050D01*
X9994475Y-12505050D01*
X9997100Y-12504528D01*
X9999367Y-12504077D01*
X9999367Y-12504077D01*
X10000323Y-12503887D01*
X10006955Y-12499455D01*
X10011387Y-12492823D01*
X10012550Y-12486975D01*
X10012550Y-12401581D01*
X10012878Y-12399053D01*
X10012934Y-12398843D01*
X10013069Y-12398461D01*
X10016457Y-12379444D01*
X14454490Y-12379444D01*
X14454582Y-12380144D01*
X14454582Y-12380144D01*
X14454708Y-12381112D01*
X14456163Y-12392239D01*
X14456447Y-12392884D01*
X14456447Y-12392885D01*
X14461020Y-12403278D01*
X14461360Y-12404051D01*
X14463579Y-12406690D01*
X14469210Y-12413389D01*
X14469210Y-12413389D01*
X14469664Y-12413929D01*
X14480406Y-12421080D01*
X14481079Y-12421290D01*
X14481079Y-12421290D01*
X14486565Y-12423004D01*
X14492723Y-12424928D01*
X14499174Y-12425046D01*
X14504920Y-12425151D01*
X14504920Y-12425151D01*
X14505625Y-12425164D01*
X14506306Y-12424979D01*
X14506306Y-12424979D01*
X14510483Y-12423840D01*
X14518075Y-12421770D01*
X14529072Y-12415018D01*
X14536916Y-12406352D01*
X14537259Y-12405973D01*
X14537259Y-12405973D01*
X14537732Y-12405451D01*
X14543359Y-12393837D01*
X14544983Y-12384185D01*
X14545436Y-12381489D01*
X14545436Y-12381489D01*
X14545500Y-12381112D01*
X14545513Y-12380000D01*
X14544153Y-12370503D01*
X18419803Y-12370503D01*
X18423535Y-12394893D01*
X18423661Y-12395280D01*
X18424460Y-12397724D01*
X18424950Y-12400800D01*
X18424950Y-12486975D01*
X18426113Y-12492823D01*
X18430545Y-12499455D01*
X18437177Y-12503887D01*
X18438133Y-12504077D01*
X18438133Y-12504077D01*
X18440401Y-12504528D01*
X18443025Y-12505050D01*
X18530173Y-12505050D01*
X18532818Y-12505410D01*
X18541395Y-12507789D01*
X18541395Y-12507789D01*
X18541787Y-12507897D01*
X18542192Y-12507941D01*
X18542192Y-12507941D01*
X18549505Y-12508722D01*
X18561929Y-12510050D01*
X18676255Y-12510050D01*
X18676458Y-12510033D01*
X18676459Y-12510033D01*
X18694186Y-12508576D01*
X18694187Y-12508576D01*
X18694591Y-12508542D01*
X18694985Y-12508444D01*
X18694985Y-12508444D01*
X18707308Y-12505348D01*
X18709720Y-12505050D01*
X18796975Y-12505050D01*
X18799600Y-12504528D01*
X18801867Y-12504077D01*
X18801867Y-12504077D01*
X18802823Y-12503887D01*
X18809455Y-12499455D01*
X18813887Y-12492823D01*
X18815050Y-12486975D01*
X18815050Y-12401581D01*
X18815378Y-12399053D01*
X18815434Y-12398843D01*
X18815569Y-12398461D01*
X18819896Y-12374169D01*
X18820198Y-12349497D01*
X18816465Y-12325107D01*
X18815540Y-12322276D01*
X18815050Y-12319200D01*
X18815050Y-12233025D01*
X18813887Y-12227177D01*
X18809455Y-12220545D01*
X18802823Y-12216113D01*
X18801867Y-12215923D01*
X18801867Y-12215923D01*
X18799600Y-12215472D01*
X18796975Y-12214950D01*
X18709827Y-12214950D01*
X18707182Y-12214590D01*
X18698605Y-12212211D01*
X18698605Y-12212211D01*
X18698213Y-12212103D01*
X18697808Y-12212059D01*
X18697808Y-12212059D01*
X18690495Y-12211278D01*
X18678071Y-12209950D01*
X18563745Y-12209950D01*
X18563542Y-12209967D01*
X18563541Y-12209967D01*
X18545814Y-12211424D01*
X18545813Y-12211424D01*
X18545409Y-12211457D01*
X18545016Y-12211556D01*
X18545015Y-12211556D01*
X18532692Y-12214652D01*
X18530280Y-12214950D01*
X18443025Y-12214950D01*
X18440401Y-12215472D01*
X18438133Y-12215923D01*
X18438133Y-12215923D01*
X18437177Y-12216113D01*
X18430545Y-12220545D01*
X18426113Y-12227177D01*
X18424950Y-12233025D01*
X18424950Y-12318419D01*
X18424622Y-12320947D01*
X18424566Y-12321157D01*
X18424431Y-12321539D01*
X18420104Y-12345831D01*
X18419803Y-12370503D01*
X14544153Y-12370503D01*
X14543684Y-12367226D01*
X14538343Y-12355479D01*
X14529919Y-12345703D01*
X14529328Y-12345319D01*
X14529327Y-12345319D01*
X14519682Y-12339068D01*
X14519091Y-12338684D01*
X14518415Y-12338482D01*
X14518415Y-12338482D01*
X14513375Y-12336975D01*
X16469950Y-12336975D01*
X16471113Y-12342823D01*
X16475545Y-12349455D01*
X16482177Y-12353887D01*
X16483133Y-12354077D01*
X16483133Y-12354077D01*
X16485179Y-12354484D01*
X16488025Y-12355050D01*
X16661975Y-12355050D01*
X16664821Y-12354484D01*
X16666867Y-12354077D01*
X16666867Y-12354077D01*
X16667823Y-12353887D01*
X16674455Y-12349455D01*
X16678887Y-12342823D01*
X16680050Y-12336975D01*
X16680050Y-12163025D01*
X16678887Y-12157177D01*
X16674455Y-12150545D01*
X16667823Y-12146113D01*
X16666867Y-12145923D01*
X16666867Y-12145923D01*
X16664599Y-12145472D01*
X16661975Y-12144950D01*
X16488025Y-12144950D01*
X16485400Y-12145472D01*
X16483133Y-12145923D01*
X16483133Y-12145923D01*
X16482177Y-12146113D01*
X16475545Y-12150545D01*
X16471113Y-12157177D01*
X16469950Y-12163025D01*
X16469950Y-12336975D01*
X14513375Y-12336975D01*
X14506727Y-12334987D01*
X14499064Y-12334940D01*
X14494528Y-12334912D01*
X14493823Y-12334908D01*
X14493145Y-12335101D01*
X14493145Y-12335101D01*
X14482093Y-12338260D01*
X14482093Y-12338260D01*
X14481415Y-12338454D01*
X14470502Y-12345340D01*
X14461960Y-12355012D01*
X14456475Y-12366693D01*
X14454490Y-12379444D01*
X10016457Y-12379444D01*
X10017396Y-12374169D01*
X10017698Y-12349497D01*
X10015781Y-12336975D01*
X13469950Y-12336975D01*
X13471113Y-12342823D01*
X13475545Y-12349455D01*
X13482177Y-12353887D01*
X13483133Y-12354077D01*
X13483133Y-12354077D01*
X13485179Y-12354484D01*
X13488025Y-12355050D01*
X13661975Y-12355050D01*
X13664821Y-12354484D01*
X13666867Y-12354077D01*
X13666867Y-12354077D01*
X13667823Y-12353887D01*
X13674455Y-12349455D01*
X13678887Y-12342823D01*
X13680050Y-12336975D01*
X13680050Y-12163025D01*
X13678887Y-12157177D01*
X13674455Y-12150545D01*
X13667823Y-12146113D01*
X13666867Y-12145923D01*
X13666867Y-12145923D01*
X13664599Y-12145472D01*
X13661975Y-12144950D01*
X13488025Y-12144950D01*
X13485400Y-12145472D01*
X13483133Y-12145923D01*
X13483133Y-12145923D01*
X13482177Y-12146113D01*
X13475545Y-12150545D01*
X13471113Y-12157177D01*
X13469950Y-12163025D01*
X13469950Y-12336975D01*
X10015781Y-12336975D01*
X10013965Y-12325107D01*
X10013040Y-12322276D01*
X10012550Y-12319200D01*
X10012550Y-12233025D01*
X10011387Y-12227177D01*
X10006955Y-12220545D01*
X10000323Y-12216113D01*
X9999367Y-12215923D01*
X9999367Y-12215923D01*
X9997100Y-12215472D01*
X9994475Y-12214950D01*
X9907327Y-12214950D01*
X9904682Y-12214590D01*
X9896105Y-12212211D01*
X9896105Y-12212211D01*
X9895713Y-12212103D01*
X9895308Y-12212059D01*
X9895308Y-12212059D01*
X9887995Y-12211278D01*
X9875571Y-12209950D01*
X9761245Y-12209950D01*
X9761042Y-12209967D01*
X9761041Y-12209967D01*
X9743314Y-12211424D01*
X9743313Y-12211424D01*
X9742909Y-12211457D01*
X9742516Y-12211556D01*
X9742515Y-12211556D01*
X9730192Y-12214652D01*
X9727780Y-12214950D01*
X9640525Y-12214950D01*
X9637901Y-12215472D01*
X9635633Y-12215923D01*
X9635633Y-12215923D01*
X9634677Y-12216113D01*
X9628045Y-12220545D01*
X9623613Y-12227177D01*
X9622450Y-12233025D01*
X9622450Y-12318419D01*
X9622122Y-12320947D01*
X9622066Y-12321157D01*
X9621931Y-12321539D01*
X9617604Y-12345831D01*
X9617303Y-12370503D01*
X9230000Y-12370503D01*
X9230000Y-11795961D01*
X16167973Y-11795961D01*
X16169647Y-11808756D01*
X16169930Y-11809401D01*
X16169931Y-11809401D01*
X16170629Y-11810989D01*
X16174844Y-11820568D01*
X16178996Y-11825507D01*
X16182693Y-11829906D01*
X16182694Y-11829906D01*
X16183147Y-11830446D01*
X16193889Y-11837596D01*
X16194562Y-11837806D01*
X16194562Y-11837806D01*
X16200048Y-11839520D01*
X16206207Y-11841444D01*
X16212658Y-11841563D01*
X16218404Y-11841668D01*
X16218404Y-11841668D01*
X16219109Y-11841681D01*
X16219789Y-11841495D01*
X16219789Y-11841495D01*
X16223966Y-11840357D01*
X16231559Y-11838287D01*
X16242556Y-11831534D01*
X16251216Y-11821967D01*
X16256842Y-11810354D01*
X16258983Y-11797629D01*
X16258984Y-11797537D01*
X16261359Y-11791977D01*
X16266610Y-11788837D01*
X16268997Y-11788590D01*
X16271437Y-11788635D01*
X16271437Y-11788635D01*
X16272142Y-11788648D01*
X16272822Y-11788462D01*
X16272823Y-11788462D01*
X16276999Y-11787323D01*
X16284592Y-11785253D01*
X16295589Y-11778501D01*
X16304249Y-11768934D01*
X16309875Y-11757321D01*
X16312016Y-11744595D01*
X16312030Y-11743483D01*
X16310200Y-11730709D01*
X16304859Y-11718962D01*
X16296436Y-11709186D01*
X16295844Y-11708803D01*
X16295844Y-11708802D01*
X16286199Y-11702551D01*
X16285607Y-11702167D01*
X16284932Y-11701965D01*
X16284931Y-11701965D01*
X16280650Y-11700685D01*
X16273244Y-11698470D01*
X16265581Y-11698423D01*
X16261045Y-11698395D01*
X16260340Y-11698391D01*
X16259662Y-11698585D01*
X16259662Y-11698585D01*
X16248610Y-11701743D01*
X16248610Y-11701744D01*
X16247932Y-11701937D01*
X16237018Y-11708823D01*
X16228476Y-11718496D01*
X16222992Y-11730177D01*
X16221007Y-11742927D01*
X16220712Y-11742881D01*
X16219159Y-11747467D01*
X16214164Y-11751001D01*
X16211162Y-11751448D01*
X16208012Y-11751429D01*
X16207306Y-11751424D01*
X16206629Y-11751618D01*
X16206629Y-11751618D01*
X16195577Y-11754777D01*
X16195577Y-11754777D01*
X16194899Y-11754970D01*
X16183985Y-11761856D01*
X16175443Y-11771529D01*
X16169959Y-11783210D01*
X16167973Y-11795961D01*
X9230000Y-11795961D01*
X9230000Y-11256944D01*
X10949990Y-11256944D01*
X10950082Y-11257644D01*
X10950082Y-11257644D01*
X10950208Y-11258612D01*
X10951663Y-11269739D01*
X10951947Y-11270385D01*
X10951947Y-11270385D01*
X10952646Y-11271972D01*
X10956861Y-11281551D01*
X10961012Y-11286490D01*
X10964710Y-11290889D01*
X10964710Y-11290889D01*
X10965164Y-11291429D01*
X10975906Y-11298580D01*
X10976579Y-11298790D01*
X10976579Y-11298790D01*
X10982065Y-11300504D01*
X10988223Y-11302428D01*
X10994674Y-11302546D01*
X11000420Y-11302651D01*
X11000420Y-11302651D01*
X11001126Y-11302664D01*
X11001806Y-11302479D01*
X11001806Y-11302479D01*
X11005983Y-11301340D01*
X11013576Y-11299270D01*
X11024572Y-11292518D01*
X11033232Y-11282951D01*
X11038859Y-11271338D01*
X11041000Y-11258612D01*
X11041013Y-11257500D01*
X11039184Y-11244726D01*
X11033843Y-11232979D01*
X11025419Y-11223203D01*
X11024828Y-11222819D01*
X11024827Y-11222819D01*
X11015182Y-11216568D01*
X11014591Y-11216184D01*
X11013915Y-11215982D01*
X11013915Y-11215982D01*
X11009634Y-11214702D01*
X11002227Y-11212487D01*
X10994564Y-11212440D01*
X10990028Y-11212412D01*
X10989323Y-11212408D01*
X10988645Y-11212602D01*
X10988645Y-11212602D01*
X10977594Y-11215760D01*
X10977593Y-11215760D01*
X10976916Y-11215954D01*
X10966002Y-11222840D01*
X10957460Y-11232512D01*
X10951975Y-11244193D01*
X10949990Y-11256944D01*
X9230000Y-11256944D01*
X9230000Y-11205996D01*
X9231891Y-11200177D01*
X9234505Y-11197696D01*
X9422539Y-11075473D01*
X9427935Y-11073874D01*
X11275000Y-11073874D01*
X11276285Y-11072910D01*
X11276285Y-11072910D01*
X11469073Y-10928319D01*
X11472341Y-10925868D01*
X11478324Y-10923888D01*
X12022011Y-10926242D01*
X12630000Y-10928874D01*
X12630534Y-10927872D01*
X13026604Y-10185241D01*
X13031011Y-10180997D01*
X13035339Y-10180000D01*
X18795503Y-10180000D01*
X18801322Y-10181891D01*
G37*
G04 #@! TD.AperFunction*
M02*
