M48
; DRILL file {KiCad 6.0.2+dfsg-1} date Tue 30 Aug 2022 21:03:46
; FORMAT={-:-/ absolute / inch / decimal}
; #@! TF.CreationDate,2022-08-30T21:03:46+10:00
; #@! TF.GenerationSoftware,Kicad,Pcbnew,6.0.2+dfsg-1
; #@! TF.FileFunction,Plated,1,4,PTH
FMAT,2
INCH
; #@! TA.AperFunction,Plated,PTH,ViaDrill
T1C0.0118
; #@! TA.AperFunction,Plated,PTH,ComponentDrill
T2C0.0394
; #@! TA.AperFunction,Plated,PTH,ComponentDrill
T3C0.0630
; #@! TA.AperFunction,Plated,PTH,ComponentDrill
T4C0.0669
%
G90
G05
T1
X3.6614Y-4.4311
X3.6614Y-5.9587
X3.6791Y-5.3287
X3.6811Y-4.8307
X3.7323Y-5.0315
X3.7402Y-4.3858
X3.7559Y-5.874
X3.7638Y-4.9055
X3.7736Y-6.061
X3.7874Y-5.2126
X3.7874Y-5.4803
X3.7874Y-5.7638
X3.8228Y-4.5807
X3.874Y-5.2126
X3.874Y-5.2913
X3.874Y-5.7717
X3.9685Y-5.874
X3.9764Y-4.9055
X3.9803Y-5.1654
X3.9843Y-5.3386
X4.0453Y-4.4724
X4.0984Y-4.5591
X4.1102Y-5.6969
X4.1181Y-5.3248
X4.1457Y-5.1988
X4.1654Y-4.3819
X4.2303Y-4.8386
X4.2717Y-4.4724
X4.2795Y-4.3858
X4.2835Y-5.4016
X4.2835Y-5.876
X4.3289Y-4.4321
X4.378Y-4.8858
X4.4016Y-4.5669
X4.4547Y-4.378
X4.4567Y-4.4961
X4.4567Y-5.628
X4.4862Y-5.1811
X4.5079Y-4.5433
X4.5197Y-4.685
X4.5512Y-4.5984
X4.5748Y-5.9882
X4.5768Y-4.9606
X4.5945Y-5.1201
X4.6063Y-4.5787
X4.6181Y-5.2283
X4.626Y-4.3898
X4.6339Y-4.685
X4.689Y-5.374
X4.7008Y-5.6969
X4.7047Y-5.5079
X4.7185Y-4.9528
X4.7362Y-4.3228
X4.7382Y-5.8465
X4.75Y-4.4331
X4.7874Y-4.5669
X4.7874Y-5.9803
X4.7953Y-5.4823
X4.815Y-5.7106
X4.8307Y-5.1732
X4.8327Y-5.8051
X4.8386Y-5.4094
X4.8415Y-5.0482
X4.8563Y-5.5945
X4.9528Y-5.2913
X4.9685Y-5.9154
X4.9803Y-5.626
X4.9921Y-4.8071
X5.0079Y-5.0433
X5.0118Y-4.2913
X5.0689Y-5.4409
X5.0807Y-5.1752
X5.0906Y-4.8386
X5.0984Y-4.685
X5.1339Y-4.9528
X5.1575Y-4.0394
X5.1693Y-4.3504
X5.1693Y-4.7677
X5.1772Y-4.437
X5.1791Y-5.7815
X5.2106Y-5.1476
X5.2165Y-5.0
X5.2756Y-4.8228
X5.2992Y-5.5709
X5.3051Y-5.7224
X5.3189Y-4.6811
X5.3425Y-5.4449
X5.3425Y-5.5187
X5.3937Y-5.437
X5.3976Y-4.2126
X5.3976Y-5.5236
X5.4154Y-4.7638
X5.4311Y-6.0276
X5.4331Y-5.6319
X5.4961Y-4.6772
X5.498Y-5.0098
X5.5118Y-5.4882
X5.5276Y-4.5984
X5.5276Y-5.3346
X5.5512Y-4.7677
X5.565Y-5.9173
X5.5748Y-4.3583
X5.5866Y-4.437
X5.5925Y-5.2283
X5.6201Y-5.7441
X5.622Y-4.7047
X5.622Y-4.8425
X5.622Y-5.0039
X5.622Y-5.3386
X5.622Y-5.4291
X5.626Y-4.9213
X5.6378Y-4.7638
X5.685Y-4.9291
X5.6929Y-4.815
X5.6929Y-5.2323
X5.6929Y-5.3386
X5.6929Y-5.4291
X5.6969Y-4.3268
X5.6988Y-5.6654
X5.7008Y-5.0118
X5.7008Y-5.1181
X5.7087Y-4.874
X5.7126Y-4.7165
X5.7441Y-5.8996
X5.7677Y-5.3543
X5.7677Y-5.7854
X5.7682Y-5.4134
X5.7697Y-5.2441
X5.7795Y-4.2638
X5.7795Y-4.6417
X5.7795Y-5.565
X5.8031Y-4.811
X5.8189Y-4.5433
X5.8346Y-4.9252
X5.8425Y-4.4252
X5.8858Y-5.4252
X5.9094Y-5.3228
X5.9291Y-5.4724
X5.9646Y-4.3031
X5.9646Y-5.8051
X5.9685Y-5.1181
X5.9764Y-4.1417
X5.9764Y-5.0512
X5.9764Y-5.6142
X5.9882Y-4.6457
X5.9921Y-5.2559
X6.0039Y-4.4606
X6.0197Y-5.7343
X6.0433Y-5.2008
X6.0492Y-5.6398
X6.0551Y-5.0531
X6.0591Y-4.3307
X6.0591Y-4.9094
X6.0591Y-5.4114
X6.063Y-4.7323
X6.0689Y-5.8228
X6.1102Y-5.248
X6.1535Y-5.9331
X6.1969Y-5.0984
X6.2087Y-5.8307
X6.2165Y-4.5354
X6.2638Y-5.6417
X6.2717Y-5.0374
X6.2756Y-4.9094
X6.2756Y-5.2953
X6.2913Y-5.4247
X6.311Y-4.6969
X6.311Y-4.7835
X6.315Y-4.2953
X6.3189Y-4.3661
X6.3228Y-4.2283
X6.3307Y-4.9646
X6.3307Y-5.0945
X6.3386Y-4.9055
X6.3504Y-5.3858
X6.3504Y-5.4528
X6.3504Y-5.6142
X6.3543Y-5.2087
X6.3543Y-5.5591
X6.3543Y-5.6693
X6.3543Y-5.7441
X6.3833Y-4.6443
X6.3976Y-4.9055
X6.4016Y-4.7559
X6.4041Y-4.6234
X6.4055Y-4.437
X6.4055Y-4.9724
X6.4094Y-5.0984
X6.4173Y-5.2087
X6.4173Y-5.6732
X6.4213Y-4.2638
X6.4213Y-5.6102
X6.4311Y-5.3543
X6.4409Y-4.7008
X6.4528Y-4.6339
X6.4606Y-4.8858
X6.4646Y-5.1378
X6.4685Y-4.2087
X6.4685Y-5.2126
X6.4764Y-5.4449
X6.5079Y-4.6339
X6.5118Y-4.7087
X6.5591Y-6.0098
X6.5945Y-5.0157
X6.6102Y-4.9331
X6.6614Y-4.8071
X6.75Y-5.5571
X6.7559Y-4.8661
X6.7795Y-5.3622
X6.8346Y-5.4646
X6.9921Y-5.5984
X6.9961Y-5.7598
X7.0236Y-5.6811
X7.061Y-4.4252
X7.0689Y-5.0689
X7.2067Y-5.1161
X7.2205Y-5.378
X7.2283Y-4.8819
X7.2736Y-4.0531
X7.3228Y-5.5276
X7.3307Y-4.9764
X7.378Y-5.2283
X7.4094Y-4.9843
X7.4134Y-6.0551
X7.4173Y-5.5354
X7.4488Y-4.8819
X7.4941Y-4.3031
X7.5236Y-5.9528
X7.5276Y-5.4409
X7.5354Y-5.252
T2
X3.8189Y-4.0953
X3.8189Y-4.1953
X3.8189Y-4.2953
X4.7539Y-5.0228
X4.7539Y-5.1228
X4.7539Y-5.2228
X4.7539Y-5.3228
X5.3445Y-4.8228
X5.3445Y-4.9228
X5.3445Y-5.0228
X5.3445Y-5.1228
X5.3445Y-5.2228
X5.3445Y-5.3228
X6.5256Y-4.8228
X6.5256Y-4.9228
X6.5256Y-5.0228
X6.5256Y-5.1228
X6.5256Y-5.2228
X6.5256Y-5.3228
T3
X4.0325Y-5.2559
X4.0325Y-5.8071
X7.1634Y-4.9409
X7.1634Y-5.4921
T4
G00X3.8258Y-5.0827
M15
G01X3.8258Y-5.1142
M16
G05
G00X3.8258Y-5.6339
M15
G01X3.8258Y-5.6654
M16
G05
G00X7.3701Y-5.1142
M15
G01X7.3701Y-5.0827
M16
G05
G00X7.3701Y-5.6654
M15
G01X7.3701Y-5.6339
M16
G05
T0
M30
